<?xml version="1.0" standalone="no"?>
<!DOCTYPE svg PUBLIC "-//W3C//DTD SVG 1.1//EN" "http://www.w3.org/Graphics/SVG/1.1/DTD/svg11.dtd" >
<svg xmlns="http://www.w3.org/2000/svg">
<metadata>Generated by IcoMoon</metadata>
<defs>
<font id="icomoon" horiz-adv-x="1024">
<font-face units-per-em="1024" ascent="960" descent="-64" />
<missing-glyph horiz-adv-x="1024" />
<glyph unicode="&#x20;" horiz-adv-x="512" d="" />
<glyph unicode="&#xe900;" glyph-name="addresses_hover" d="M972.448 595.456c-0.256 2.784-0.864 5.312-1.76 7.712l0.064-0.192c-0.512 1.536-0.704 3.008-1.472 4.416-1.12 2.304-2.912 4.192-4.704 6.144-0.96 1.12-1.472 2.464-2.56 3.424l-63.744 53.952-0.96 207.68c-0.32 16.896-14.080 30.464-31.008 30.464-0.16 0-0.288 0-0.448 0h-150.24c-0.096 0-0.224 0-0.352 0-16.992 0-30.816-13.664-31.072-30.592v-47.488l-159.232 122.464c-5.376 4.096-12.16 6.56-19.552 6.56-7.552 0-14.496-2.592-20-6.912l0.064 0.064-422.752-335.552c-6.976-5.632-11.392-14.144-11.456-23.68v-627.264c0-16.896 14.080-30.56 31.424-30.56h310.208c17.408 0 31.424 13.664 31.424 30.56v261.12h175.456v-261.12c0-16.896 14.016-30.56 31.424-30.56h310.176c0.128 0 0.256 0 0.416 0 16.96 0 30.752 13.632 31.040 30.56v627.232c0 0.512-0.32 1.024-0.352 1.632z" />
<glyph unicode="&#xe901;" glyph-name="addresses" d="M662.656-2.816v261.12c0 16.896-14.080 30.56-31.424 30.56h-238.4c-17.312 0-31.424-13.664-31.424-30.56v-261.12h-247.296v582.080l391.616 310.88 404.16-311.136v-581.824h-247.232zM834.464 847.872l0.608-133.184-88.064 67.776v65.376h87.456zM972.448 595.456c-0.16 2.56-0.864 5.024-1.696 7.52-0.512 1.472-0.704 3.008-1.472 4.416-1.12 2.304-2.912 4.192-4.768 6.208-0.928 1.088-1.44 2.4-2.496 3.328l-63.744 53.952-0.96 207.712c-0.064 16.832-14.144 30.464-31.424 30.464h-150.272c-17.344 0-31.424-13.728-31.424-30.624v-47.52l-159.232 122.528c-11.616 8.864-28 8.768-39.488-0.32l-422.752-335.616c-7.232-5.792-11.456-14.528-11.456-23.712v-627.264c0-16.896 14.080-30.528 31.424-30.528h310.176c17.408 0 31.488 13.632 31.488 30.528v261.184h175.424v-261.184c0-16.896 14.080-30.528 31.488-30.528h310.112c17.344 0 31.488 13.632 31.488 30.528v627.264c0 0.576-0.32 1.088-0.352 1.632v0z" />
<glyph unicode="&#xe902;" glyph-name="android" d="M864 640c-35.2 0-64-28.8-64-64v-256c0-35.2 28.8-64 64-64s64 28.8 64 64v256c0 35.2-28.8 64-64 64zM96 640c-35.2 0-64-28.8-64-64v-256c0-35.2 28.8-64 64-64s64 28.8 64 64v256c0 35.2-28.8 64-64 64zM192 224c0-53.024 42.976-96 96-96h32v-128c0-35.2 28.8-64 64-64s64 28.8 64 64v128h64v-128c0-35.2 28.8-64 64-64s64 28.8 64 64v128h32c53.024 0 96 42.976 96 96v352h-576v-352zM598.592 870.496l40.512 77.792c2.048 3.904 0.512 8.768-3.392 10.784s-8.768 0.512-10.784-3.392l-41.12-78.976c-32.192 12.448-67.2 19.296-103.808 19.296s-71.584-6.848-103.808-19.296l-41.12 78.976c-2.016 3.904-6.88 5.44-10.784 3.392s-5.44-6.88-3.392-10.784l40.512-77.824c-90.624-41.024-156.256-127.584-167.616-230.496h572.448c-11.36 102.912-76.992 189.472-167.616 230.496zM352 689.6c-25.632 0-46.4 20.768-46.4 46.4s20.768 46.4 46.4 46.4 46.4-20.768 46.4-46.4c0-25.632-20.768-46.4-46.4-46.4zM608 689.6c-25.632 0-46.4 20.768-46.4 46.4s20.768 46.4 46.4 46.4 46.4-20.768 46.4-46.4c0-25.632-20.768-46.4-46.4-46.4z" />
<glyph unicode="&#xe903;" glyph-name="arrow-left" d="M402.752 813.248l-320-320c-24.992-24.992-24.992-65.504 0-90.496l320-320c24.992-24.992 65.504-24.992 90.496 0s24.992 65.504 0 90.496l-210.752 210.752h613.504c35.36 0 64 28.64 64 64s-28.64 64-64 64h-613.504l210.752 210.752c12.48 12.512 18.752 28.864 18.752 45.248s-6.24 32.768-18.752 45.248c-24.992 24.992-65.504 24.992-90.496 0z" />
<glyph unicode="&#xe904;" glyph-name="arrow-right" d="M621.248 82.752l320 320c24.992 24.992 24.992 65.504 0 90.496l-320 320c-24.992 24.992-65.504 24.992-90.496 0s-24.992-65.504 0-90.496l210.752-210.752h-613.504c-35.36 0-64-28.64-64-64s28.64-64 64-64h613.504l-210.752-210.752c-12.48-12.48-18.752-28.864-18.752-45.248s6.24-32.768 18.752-45.248c24.992-24.992 65.504-24.992 90.496 0z" />
<glyph unicode="&#xe905;" glyph-name="basket_hover" horiz-adv-x="1312" d="M389.792 796l-31.392 163.328h-327.328v-65.28h273.408l119.2-621.472h716.704l0.16 0.736h1.152l66.080 245.152 74.752 272.736h-1.28l1.28 4.768h-892.768zM1019.232-53.344c67.68 0 122.496 53.504 122.496 119.52s-54.816 119.52-122.464 119.52c-67.68 0-122.528-53.504-122.528-119.456 0-66.048 54.88-119.552 122.496-119.552zM553.728-53.344c67.68 0 122.496 53.504 122.496 119.52s-54.816 119.52-122.464 119.52c-67.712 0-122.528-53.504-122.528-119.456 0-66.048 54.816-119.552 122.496-119.552z" />
<glyph unicode="&#xe906;" glyph-name="basket" horiz-adv-x="1312" d="M1090.56 337.92h-612.896l-119.2 621.408h-327.392v-65.28h273.408l119.2-621.472h716.704l142.176 518.656h-761.504v-65.312h675.84l-106.336-387.968zM1019.232-53.344c67.68 0 122.496 53.504 122.496 119.52s-54.816 119.52-122.464 119.52c-67.68 0-122.528-53.504-122.528-119.456 0-66.048 54.88-119.552 122.496-119.552zM1019.232 12c-31.904 0-57.184 24.608-57.184 54.176s25.248 54.176 57.184 54.176c31.968 0 57.184-24.608 57.184-54.176s-25.216-54.176-57.184-54.176zM553.728-53.344c67.68 0 122.496 53.504 122.496 119.52s-54.816 119.52-122.464 119.52c-67.712 0-122.528-53.504-122.528-119.456 0-66.048 54.816-119.552 122.496-119.552zM553.728 12c-31.904 0-57.184 24.608-57.184 54.176s25.248 54.176 57.184 54.176c31.904 0 57.184-24.608 57.184-54.176s-25.248-54.176-57.184-54.176z" />
<glyph unicode="&#xe907;" glyph-name="bottle_large" horiz-adv-x="768" d="M532.736 842.528v77.536c0 22.080-68.448 39.936-152.864 39.936s-152.864-17.856-152.864-39.968v-77.504c-133.664-17.888-227.008-58.528-227.008-105.792v-701.536c0-54.816 170.080-99.2 379.872-99.2s379.872 44.384 379.872 99.2v701.504c0 47.264-93.344 87.904-227.008 105.792z" />
<glyph unicode="&#xe908;" glyph-name="bottle_medium" horiz-adv-x="544" d="M412.672 807.808v104.544c0 26.304-66.432 47.648-148.416 47.648s-148.416-21.344-148.416-47.648v-104.544c-69.92-24.8-115.84-66.624-115.84-114.048v-639.52c0-65.28 118.336-118.24 264.256-118.24s264.256 52.96 264.256 118.24v639.52c0 47.424-45.92 89.248-115.84 114.048z" />
<glyph unicode="&#xe909;" glyph-name="bottle_small" horiz-adv-x="672" d="M682.528 472.672c-1.952 53.408-53.504 100.8-132.768 131.168v288.32c0 37.44-93.28 67.84-208.416 67.84-115.072 0-208.416-30.368-208.416-67.872v-288.224c-79.296-30.432-130.816-77.888-132.768-131.232h-0.16v-425.632c0-61.28 152.832-111.040 341.344-111.040s341.344 49.728 341.344 111.040v425.632h-0.16z" />
<glyph unicode="&#xe90a;" glyph-name="box_hover" d="M10.24 636.16h470.4v-193.44h62.752v193.44h470.4v-689.92h-1003.52v689.92zM10.24 698.88l58.4 61.888h411.968v-61.888h-470.4zM127.872 823.52l119.104 126.24h529.952l119.2-126.24h-768.288zM955.296 760.768l58.464-61.888h-470.4v61.888h411.936z" />
<glyph unicode="&#xe90b;" glyph-name="box" d="M162.976 760.768l-55.040-61.888h372.736v61.888h-317.728zM218.72 823.52h586.56l-56.48 63.488h-473.536l-56.512-63.456zM861.024 760.768h-317.632v-61.888h372.704l-55.104 61.888zM480.64 636.16h-407.68v-627.264h878.144v627.264h-407.68v-193.44h-62.752v193.44zM1013.76 698.88v-752.64h-1003.52v752.64l236.8 250.88h529.984l236.8-250.88z" />
<glyph unicode="&#xe90c;" glyph-name="menu" d="M64 768h896v-192h-896zM64 512h896v-192h-896zM64 256h896v-192h-896z" />
<glyph unicode="&#xe90d;" glyph-name="chevron-up" horiz-adv-x="1792" d="M992.928 830.72l723.968-724.064-120.672-120.672-724.064 724.064-724.128-724.064-120.576 120.672 844.8 844.8 120.672-120.736z" />
<glyph unicode="&#xe90e;" glyph-name="chevron-down" horiz-adv-x="1696" d="M724.064 115.2l-724.064 724.224 120.672 120.576 724.128-724.064 724.064 724.064 120.672-120.672-844.8-844.8-120.672 120.736z" />
<glyph unicode="&#xe90f;" glyph-name="chevron-left" horiz-adv-x="640" d="M111.808 502.336l413.76 413.792 68.992-68.96-413.792-413.792 413.792-413.76-68.992-68.992-482.752 482.752 68.992 68.96z" />
<glyph unicode="&#xe910;" glyph-name="chevron-right" horiz-adv-x="608" d="M536.832 375.616l-434.432-434.496-72.384 72.448 434.368 434.432-434.368 434.432 72.384 72.448 506.88-506.88-72.448-72.384z" />
<glyph unicode="&#xe911;" glyph-name="close" d="M430.592 457.088l-407.296 407.296 90.496 90.496 407.296-407.296 407.296 407.296 90.496-90.496-407.296-407.296 407.296-407.296-90.496-90.496-407.296 407.296-407.296-407.296-90.496 90.496 407.296 407.296z" />
<glyph unicode="&#xe912;" glyph-name="filter" horiz-adv-x="960" d="M680.128 124.16c10.72 63.872 66.272 112.544 133.216 112.544 74.592 0 135.072-60.48 135.072-135.072s-60.48-135.072-135.072-135.072c-58.816 0-108.832 37.6-127.392 90.048h-683.040v67.52h677.216zM586.368 484.352h362.048v-67.52h-367.872c-18.528-52.448-68.576-90.048-127.392-90.048s-108.832 37.6-127.392 90.048h-322.848v67.52h317.024c10.72 63.872 66.272 112.544 133.216 112.544s122.496-48.672 133.216-112.544zM271.2 844.512h677.216v-67.52h-683.040c-18.528-52.448-68.576-90.048-127.392-90.048-74.592 0-135.072 60.48-135.072 135.072s60.48 135.072 135.072 135.072c66.912 0 122.496-48.672 133.216-112.544zM137.984 764.128c31.968 0 57.888 25.92 57.888 57.888s-25.92 57.888-57.888 57.888c-31.968 0-57.888-25.92-57.888-57.888s25.92-57.888 57.888-57.888zM453.152 403.936c31.968 0 57.888 25.92 57.888 57.888s-25.92 57.888-57.888 57.888c-31.968 0-57.888-25.92-57.888-57.888s25.92-57.888 57.888-57.888zM813.344 43.744c31.968 0 57.888 25.92 57.888 57.888s-25.92 57.888-57.888 57.888c-31.968 0-57.888-25.92-57.888-57.888s25.92-57.888 57.888-57.888z" />
<glyph unicode="&#xe913;" glyph-name="heart_hover" horiz-adv-x="1120" d="M302.816 923.296c4.448 0.256 9.632 0.384 14.88 0.384 53.472 0 103.584-14.432 146.656-39.616l-1.376 0.736c34.528-19.872 64.512-48.736 89.984-84.992 25.408 36.256 55.456 65.12 89.984 84.992 41.76 24.448 91.936 38.88 145.472 38.88 5.184 0 10.304-0.128 15.424-0.416l-0.704 0.032c81.184-4.192 159.552-43.744 213.536-106.816 51.488-60.096 78.816-140.384 78.816-225.12 0-65.92-21.376-133.44-59.712-200.416-31.008-54.016-71.552-104.288-125.856-159.328-98.784-99.904-212.16-185.088-336.736-252.128l-7.52-3.712c-3.68-1.984-8.032-3.136-12.672-3.136s-8.992 1.152-12.8 3.232l0.16-0.064c-132.096 70.752-245.472 155.904-344.128 255.68l-0.128 0.128c-54.304 55.104-94.848 105.344-125.856 159.424-38.336 67.008-59.712 134.56-59.712 200.384 0 84.608 27.36 165.152 78.848 225.12 53.952 63.072 132.288 102.56 213.536 106.816z" />
<glyph unicode="&#xe914;" glyph-name="heart" horiz-adv-x="1120" d="M302.816 923.296c4.448 0.256 9.632 0.384 14.88 0.384 53.472 0 103.584-14.432 146.656-39.616l-1.376 0.736c34.528-19.872 64.512-48.736 89.984-84.992 25.408 36.256 55.456 65.12 89.984 84.992 41.76 24.448 91.936 38.88 145.472 38.88 5.184 0 10.304-0.128 15.424-0.416l-0.704 0.032c81.184-4.192 159.552-43.744 213.536-106.816 51.488-60.096 78.816-140.384 78.816-225.12 0-65.92-21.376-133.44-59.712-200.416-31.008-54.016-71.552-104.288-125.856-159.328-98.784-99.904-212.16-185.088-336.736-252.128l-7.52-3.712c-3.68-1.984-8.032-3.136-12.672-3.136s-8.992 1.152-12.8 3.232l0.16-0.064c-132.096 70.752-245.472 155.904-344.128 255.68l-0.128 0.128c-54.304 55.104-94.848 105.344-125.856 159.424-38.336 67.008-59.712 134.56-59.712 200.384 0 84.608 27.36 165.152 78.848 225.12 53.952 63.072 132.288 102.56 213.536 106.816zM871.328 270.208c51.168 51.744 89.088 98.752 117.312 148.064 33.92 59.232 52.48 117.472 52.48 173.088 0 71.872-22.944 139.744-65.632 189.568-44.16 51.52-109.312 84.384-175.136 87.776-3.52 0.192-7.648 0.288-11.808 0.288-43.584 0-84.448-11.712-119.584-32.16l1.12 0.608c-39.712-23.296-71.424-56.384-92.384-96.064l-0.64-1.312c-4.576-8.832-13.632-14.752-24.096-14.752s-19.52 5.92-24 14.592l-0.064 0.16c-21.632 40.96-53.344 74.048-91.904 96.736l-1.12 0.608c-34.016 19.84-74.912 31.552-118.528 31.552-4.16 0-8.288-0.096-12.384-0.32l0.576 0.032c-65.792-3.456-130.944-36.256-175.136-87.776-42.624-49.76-65.632-117.632-65.632-189.568 0-55.616 18.56-113.856 52.48-173.152 28.192-49.28 66.112-96.256 117.312-148.032 91.68-92.48 196.448-171.744 311.328-234.88l7.040-3.552c121.92 66.656 226.688 145.92 318.304 238.304l0.096 0.096z" />
<glyph unicode="&#xe915;" glyph-name="location_hover" horiz-adv-x="896" d="M461.312-41.728l-13.216-7.264-13.312 7.2c-3.424 1.824-9.568 5.344-18.016 10.464-69.632 43.008-130.016 90.592-184.448 144.224l0.128-0.128c-127.232 125.824-204.192 270.72-204.192 432.768-0.032 226.016 188.128 408.928 419.744 408.928 231.68 0 419.808-182.912 419.808-408.928 0-161.12-76.928-305.824-204.256-431.968-54.336-53.664-114.688-101.44-179.872-142.208l-4.352-2.56c-8.448-5.12-14.56-8.672-18.016-10.528zM448 390.752c87.328 0 158.464 69.12 158.464 154.784 0 85.728-71.136 154.88-158.464 154.88s-158.464-69.152-158.464-154.88c0-85.664 71.136-154.784 158.464-154.784z" />
<glyph unicode="&#xe916;" glyph-name="location" horiz-adv-x="896" d="M448 390.752c-87.328 0-158.464 69.12-158.464 154.784 0 85.728 71.136 154.88 158.464 154.88s158.464-69.152 158.464-154.88c0-85.664-71.136-154.784-158.464-154.784zM448 446.304c56.992 0 102.88 44.64 102.88 99.232 0 54.656-45.856 99.296-102.88 99.296s-102.88-44.64-102.88-99.296c0-54.624 45.856-99.232 102.88-99.232zM461.312-41.728l-13.216-7.264-13.312 7.2c-3.424 1.824-9.568 5.344-18.016 10.464-69.632 43.008-130.016 90.592-184.448 144.224l0.128-0.128c-127.232 125.824-204.192 270.72-204.192 432.768-0.032 226.016 188.128 408.928 419.744 408.928 231.68 0 419.808-182.912 419.808-408.928 0-161.12-76.928-305.824-204.256-431.968-54.336-53.664-114.688-101.44-179.872-142.208l-4.352-2.56c-8.448-5.12-14.56-8.672-18.016-10.528zM402.528 44.128c18.336-12.672 33.824-22.496 45.44-29.44 66.688 41.312 124.512 86.976 176.608 138.432l-0.096-0.096c117.664 116.704 187.744 248.48 187.744 392.544 0 194.976-162.848 353.376-364.192 353.376s-364.192-158.368-364.192-353.376c0-144.992 70.048-276.896 187.744-393.248 39.36-38.784 82.144-74.336 127.808-106.048l3.2-2.112z" />
<glyph unicode="&#xe917;" glyph-name="my-account_hover" horiz-adv-x="896" d="M436.544 398.752c-240.736 0-436.544-177.344-436.544-395.296v-26.72h873.024v26.72c0 217.984-195.776 395.296-436.48 395.296zM437.76 470.272c135.264 0 244.864 109.6 244.864 244.864s-109.6 244.864-244.864 244.864c-135.264 0-244.864-109.6-244.864-244.864s109.6-244.864 244.864-244.864z" />
<glyph unicode="&#xe918;" glyph-name="my-account" horiz-adv-x="918" d="M451.619 942.345c0.011 0 0.023 0 0.035 0 134.052 0 242.723-108.671 242.723-242.723 0-0.013 0-0.025 0-0.038v0.002c0-0.011 0-0.023 0-0.035 0-134.052-108.671-242.723-242.723-242.723-0.013 0-0.025 0-0.038 0h0.002c-0.011 0-0.023 0-0.035 0-134.052 0-242.723 108.671-242.723 242.723 0 0.013 0 0.025 0 0.038v-0.002c0 0.011 0 0.023 0 0.035 0 134.052 108.671 242.723 242.723 242.723 0.013 0 0.025 0 0.038 0h-0.002zM451.619 889.379c-104.771-0.121-189.673-85.022-189.793-189.782v-0.011c0.121-104.771 85.022-189.673 189.782-189.793h0.011c104.764 0.121 189.657 85.026 189.758 189.784v0.010c-0.1 104.767-84.993 189.673-189.746 189.793h-0.012zM70.621-5.985v-26.483h-52.966v26.483c0 217.123 194.348 391.91 432.764 391.91 238.451 0 432.799-174.786 432.799-391.945v-26.483h-52.966v26.483c0 186.58-169.49 338.979-379.833 338.979s-379.798-152.399-379.798-338.979v0.035z" />
<glyph unicode="&#xe919;" glyph-name="order-history_hover" d="M532.256 507.744c1.184-2.88 2.944-5.504 5.12-7.68l-0.032 0.032c-2.24 2.208-3.936 4.832-5.088 7.648zM532.256 507.744c-1.152 2.752-1.824 5.792-1.824 9.024 0-3.104 0.64-6.144 1.824-9.024zM667.712 333.632c-4.576-4.608-10.688-6.944-16.704-6.944s-12.064 2.336-16.704 6.944l-96.96 96.928c-2.176 2.208-3.936 4.8-5.12 7.68s-1.824 5.952-1.824 9.024v242.048c0 13.024 10.56 23.616 23.616 23.616 13.024 0 23.616-10.592 23.616-23.616v-232.256l90.048-90.048c9.216-9.216 9.216-24.192 0-33.408zM554.048 879.776c-14.528 0-28.896-0.8-43.040-2.176-4.096-0.448-8.032-1.248-12.064-1.728-10.080-1.312-20.096-2.624-29.92-4.608-4.544-0.896-8.896-2.176-13.344-3.232-9.184-2.112-18.368-4.288-27.296-7.008-4.48-1.376-8.832-3.072-13.28-4.576-8.672-2.944-17.344-5.952-25.728-9.44-4.416-1.824-8.64-3.872-12.96-5.792-8.192-3.744-16.32-7.52-24.192-11.712-4.288-2.272-8.48-4.736-12.672-7.168-7.52-4.32-15.008-8.736-22.24-13.536-4.256-2.784-8.384-5.76-12.512-8.672-6.848-4.832-13.536-9.792-20.096-15.040-4.224-3.392-8.352-6.848-12.448-10.4-5.952-5.152-11.776-10.4-17.44-15.872-4.288-4.128-8.48-8.32-12.576-12.576-4.992-5.248-9.856-10.592-14.56-16.064-4.288-4.96-8.544-9.952-12.608-15.072-3.968-5.056-7.744-10.208-11.552-15.424-4.32-5.984-8.576-12.064-12.608-18.272-2.912-4.48-5.632-9.152-8.384-13.792-4.32-7.232-8.544-14.56-12.448-22.080-1.888-3.616-3.584-7.36-5.344-11.040-4.224-8.768-8.32-17.6-11.968-26.656-0.896-2.272-1.664-4.576-2.528-6.848-13.504-35.36-22.848-72.832-26.592-111.968l-80.544 117.28c-7.392 10.72-22.144 13.504-32.896 6.080-10.752-7.36-13.472-22.048-6.112-32.832l119.36-169.824c-1.92 17.888-0.96 41.664-0.96 41.664l48.32 32.544c0 0.224-0.032-0.192 0 0l113.024 77.696c10.752 7.392 25.472 4.672 32.896-6.080 3.712-5.408 4.832-11.776 3.744-17.728-0.992-6.176-4.288-11.968-9.856-15.808l-162.272-111.456c-4.096-2.784-8.736-4.128-13.344-4.128-4.064 0-8 1.216-11.584 3.264 1.568-17.952 4.576-35.52 8.224-52.768l44.832 9.536c3.392-15.936 7.872-31.872 13.248-47.232l-43.2-15.2c6.112-17.376 12.992-34.368 21.184-50.688l41.248 20.768c7.328-14.56 15.68-28.8 24.8-42.368l-38.016-25.6c10.24-15.296 21.28-29.92 33.312-43.712l34.688 30.432c10.752-12.288 22.4-24 34.656-34.816l-30.528-34.496c14.016-12.416 29.12-23.68 44.672-34.176l-0.448-0.672c37.568-25.376 78.496-44.256 121.376-56.672 2.048-0.64 4.16-1.088 6.272-1.664 9.536-2.624 19.104-4.928 28.736-6.848 3.552-0.704 7.136-1.376 10.688-2.016 8.832-1.536 17.728-2.752 26.688-3.744 3.584-0.384 7.168-0.896 10.784-1.216 12.352-1.024 24.768-1.728 37.312-1.728 238.88 0 432.48 193.6 432.48 432.512 0 238.816-193.6 432.48-432.48 432.48z" />
<glyph unicode="&#xe91a;" glyph-name="order-history" d="M554.048 425.12c-13.088 0-23.616 10.592-23.616 23.616v242.016c0 13.024 10.56 23.616 23.616 23.616s23.616-10.592 23.616-23.616v-242.016c0-13.024-10.56-23.616-23.616-23.616zM651.040 328.16c-6.016 0-12.096 2.336-16.704 6.944l-96.992 96.96c-9.216 9.184-9.216 24.128 0 33.344s24.224 9.216 33.44 0l96.96-96.96c9.216-9.184 9.216-24.128 0-33.344-4.576-4.608-10.688-6.944-16.704-6.944zM135.104 408.48c-7.52 0-14.912 3.584-19.488 10.24-7.392 10.752-4.64 25.44 6.112 32.832l162.24 111.456c10.752 7.36 25.472 4.672 32.896-6.080 7.36-10.784 4.64-25.472-6.112-32.832l-162.272-111.488c-4.096-2.784-8.736-4.128-13.344-4.128zM135.104 408.48c-7.52 0-14.912 3.584-19.488 10.24l-111.456 162.24c-7.36 10.752-4.64 25.44 6.112 32.832s25.472 4.64 32.896-6.080l111.424-162.272c7.392-10.752 4.64-25.44-6.112-32.832-4.096-2.784-8.736-4.128-13.344-4.128zM263.84 194.304l-35.52-31.2c1.696-1.92 3.424-3.872 5.152-5.76l0.288-0.352c0.192-0.192 0.384-0.384 0.576-0.64 0 0 0 0 0-0.032 0.128-0.064 0.192-0.16 0.288-0.288 0 0 0 0 0.032-0.032 0.16-0.192 0.352-0.352 0.544-0.544 0-0.032 0.032-0.032 0.032-0.064l0.224-0.224c0-0.032 0.032-0.032 0.032-0.064 0.128-0.064 0.192-0.192 0.288-0.288 0-0.032 0 0 0.032-0.032 0.064-0.064 0.128-0.16 0.224-0.288 0-0.032 0.032-0.032 0.032-0.064 0.064-0.064 0.16-0.128 0.224-0.192 0-0.032 0.032-0.064 0.064-0.128 0.064-0.032 0.16-0.128 0.224-0.224 0.032 0 0.032 0 0.032-0.032l0.224-0.224c0.032-0.032 0.064-0.064 0.064-0.128 0.064-0.032 0.128-0.128 0.192-0.192 0.032-0.032 0.032-0.032 0.064-0.064 0.064-0.064 0.16-0.16 0.192-0.224 0.064-0.032 0.064-0.064 0.128-0.16 0.064-0.032 0.16-0.128 0.192-0.192l0.128-0.128c0.032 0 0.128-0.032 0.16-0.128 0.032-0.032 0.064-0.064 0.128-0.128 0.032-0.064 0.128-0.128 0.16-0.16 0.032-0.064 0.128-0.16 0.192-0.224 0.032-0.032 0.064-0.128 0.16-0.16 0.032-0.032 0.064-0.064 0.128-0.16 0.032-0.032 0.064-0.064 0.128-0.128s0.128-0.128 0.16-0.16l0.128-0.128c0.064-0.128 0.16-0.192 0.224-0.288 0.032-0.032 0.064-0.032 0.128-0.064 0.032-0.064 0.128-0.128 0.16-0.192 0.032 0 0.064-0.032 0.064-0.064 0.064-0.064 0.128-0.128 0.192-0.192 0 0 0.032-0.032 0.032-0.064l0.352-0.352c0.032-0.032 0.032-0.032 0.064-0.064s0.128-0.128 0.16-0.16c0.032-0.032 0.032-0.064 0.064-0.064 0.064-0.064 0.128-0.16 0.16-0.192s0.032-0.032 0.064-0.064c0.192-0.16 0.384-0.384 0.576-0.576 0.032-0.032 0.032-0.032 0.064-0.032 0.032-0.064 0.128-0.16 0.16-0.224h0.032c0.192-0.224 0.448-0.48 0.672-0.704v0c0.064-0.064 0.128-0.16 0.192-0.192 4.256-4.416 8.544-8.64 12.96-12.832 0.288-0.288 0.576-0.544 0.896-0.864 0 0 0 0 0.032-0.032 0.064-0.064 0.128-0.128 0.192-0.192 0.032 0 0.032-0.032 0.032-0.032l0.64-0.576c0.032-0.032 0.032-0.064 0.064-0.064 0.064-0.064 0.128-0.064 0.192-0.16 0.032 0 0.032-0.032 0.064-0.064 0.192-0.16 0.384-0.352 0.544-0.544 0.064-0.032 0.128-0.064 0.16-0.128s0.064-0.064 0.128-0.128c0.064-0.032 0.128-0.128 0.192-0.16l0.064-0.128c0.064-0.064 0.192-0.16 0.288-0.224 0.032-0.032 0.032-0.064 0.128-0.128 0.032-0.032 0.128-0.064 0.16-0.128l0.128-0.128c0.064-0.032 0.16-0.128 0.192-0.192 0.032 0 0.032-0.032 0.064-0.064l0.288-0.224c0.032-0.032 0.032-0.032 0.064-0.032 0.064-0.064 0.16-0.192 0.224-0.288 0.032 0 0.032-0.032 0.064-0.032 0.064-0.064 0.16-0.16 0.224-0.224l0.032-0.032c0.192-0.192 0.448-0.352 0.576-0.544h0.032c1.888-1.76 3.808-3.456 5.76-5.184l31.296 35.392c-12.256 10.816-23.904 22.528-34.656 34.816zM208.992 275.552l-42.208-21.28c0.032-0.032 0.032-0.032 0.032-0.064l0.128-0.192 0.064-0.128 0.16-0.352c0-0.032 0.032-0.032 0.032-0.064 0.032-0.064 0.064-0.192 0.128-0.288 0.032-0.032 0.064-0.064 0.064-0.128l0.128-0.224 0.256-0.512 0.128-0.288 0.064-0.128c0.032-0.064 0.064-0.16 0.128-0.224l0.064-0.128c0.032-0.128 0.064-0.192 0.16-0.32 0-0.032 0.032-0.064 0.032-0.128 0.032-0.064 0.064-0.192 0.16-0.224 0-0.032 0.032-0.064 0.032-0.16 0.032-0.032 0.064-0.128 0.128-0.192l0.064-0.16c0.032-0.064 0.064-0.16 0.128-0.224 0.032-0.032 0.032-0.064 0.032-0.128 0.064-0.128 0.128-0.192 0.192-0.32 0-0.032 0.032-0.064 0.032-0.16 0.032-0.032 0.064-0.128 0.128-0.192l0.064-0.128 0.128-0.224c0-0.032 0.032-0.064 0.064-0.128 0.032-0.128 0.064-0.192 0.16-0.32l0.064-0.16c0.032-0.064 0.064-0.128 0.064-0.192 0.032-0.032 0.064-0.128 0.128-0.16 0-0.064 0.032-0.16 0.064-0.192 0.032-0.064 0.064-0.128 0.064-0.16 0.064-0.064 0.128-0.16 0.16-0.288 0.032-0.032 0.032-0.064 0.064-0.16 0.032-0.032 0.064-0.128 0.128-0.192l0.064-0.16c0.032-0.064 0.064-0.128 0.128-0.192 0-0.032 0.032-0.128 0.032-0.16 0.064-0.128 0.128-0.192 0.192-0.32l0.064-0.16c0.032-0.032 0.064-0.128 0.064-0.16 0.032-0.032 0.032-0.064 0.064-0.16l0.128-0.192 0.064-0.16c0.032-0.064 0.064-0.16 0.128-0.288 0.032-0.032 0.064-0.128 0.128-0.192 0.032-0.032 0.064-0.128 0.128-0.192 0.032-0.032 0.032-0.064 0.064-0.16 0.032-0.032 0.064-0.128 0.128-0.192 0-0.032 0.032-0.032 0.032-0.128l0.128-0.224c0.032-0.064 0.064-0.128 0.128-0.192s0.064-0.16 0.128-0.192l0.128-0.192c0-0.032 0.032-0.128 0.064-0.16 0.032-0.064 0.064-0.128 0.064-0.192 0.032-0.032 0.064-0.128 0.128-0.192l0.128-0.192c0.032-0.064 0.064-0.128 0.128-0.192 0.032-0.032 0.064-0.128 0.064-0.16 0.032-0.064 0.064-0.16 0.128-0.192 0.032-0.064 0.032-0.128 0.064-0.16 0.032-0.064 0.064-0.16 0.128-0.192l0.128-0.224c0.032-0.064 0.064-0.16 0.128-0.224l0.064-0.16c0.032-0.064 0.064-0.128 0.064-0.16 0.032-0.032 0.064-0.128 0.128-0.16 0.032-0.064 0.032-0.128 0.064-0.16 0.032-0.128 0.064-0.16 0.128-0.224s0.128-0.16 0.16-0.288c0.032-0.032 0.032-0.064 0.064-0.16 0.032-0.032 0.064-0.128 0.064-0.16 0.032-0.064 0.064-0.128 0.128-0.192l0.064-0.16c0.032-0.032 0.064-0.064 0.064-0.16 0.032-0.032 0.064-0.128 0.128-0.192s0.128-0.16 0.16-0.288c0.032-0.032 0.064-0.064 0.064-0.16 0.032-0.064 0.064-0.128 0.128-0.192 0.032-0.032 0.032-0.064 0.064-0.128l0.064-0.192c0.032-0.064 0.064-0.128 0.128-0.192s0.128-0.192 0.16-0.224c0.032-0.064 0.064-0.128 0.064-0.16 0.032-0.064 0.064-0.16 0.128-0.192s0.032-0.128 0.064-0.16l0.128-0.192c0-0.032 0.032-0.064 0.064-0.128 0.032-0.128 0.128-0.224 0.192-0.384l0.032-0.128c0.032-0.032 0.064-0.128 0.128-0.192l0.064-0.128c0.032-0.032 0.064-0.128 0.128-0.16s0.032-0.064 0.032-0.128c0.064-0.128 0.16-0.288 0.224-0.384l0.032-0.128c0.032-0.064 0.064-0.16 0.16-0.192l0.032-0.128 0.128-0.224c0.032-0.032 0.032-0.032 0.032-0.064 0.128-0.16 0.192-0.288 0.288-0.448 0.032 0 0.032-0.032 0.032-0.032l0.128-0.224c0-0.032 0.032-0.064 0.032-0.064 0.064-0.128 0.128-0.16 0.16-0.224 0-0.032 0-0.064 0.032-0.064 0.16-0.288 0.288-0.512 0.448-0.736 0 0 0.032-0.032 0.032-0.064 0.032-0.064 0.064-0.16 0.128-0.224l0.032-0.064c0.16-0.224 0.32-0.512 0.48-0.8 0 0 0 0 0-0.032 0.064-0.064 0.128-0.16 0.16-0.224 0-0.032 0.032-0.032 0.032-0.064 0.128-0.224 0.32-0.512 0.48-0.8 0.032-0.064 0.128-0.192 0.16-0.288v0c0.224-0.384 0.448-0.736 0.672-1.088v-0.032c0.224-0.352 0.448-0.736 0.672-1.152 4.288-7.2 8.768-14.304 13.472-21.216l39.136 26.432c-9.152 13.536-17.472 27.776-24.8 42.368zM176.544 367.872l-46.24-9.856c0.512-2.368 1.056-4.768 1.568-7.104l0.032-0.032c0-0.064 0.032-0.192 0.032-0.32l0.032-0.032c0-0.064 0.032-0.192 0.032-0.288 0 0 0-0.032 0.032-0.032 0-0.064 0.032-0.192 0.032-0.288 0-0.032 0.032-0.064 0.032-0.064 0-0.064 0.032-0.192 0.032-0.288 0-0.032 0-0.032 0.032-0.032 0-0.064 0.032-0.16 0.032-0.224 0-0.032 0-0.064 0.032-0.064 0-0.128 0.032-0.192 0.032-0.288 0-0.032 0.032-0.064 0.032-0.128s0.032-0.128 0.032-0.192c0-0.032 0.032-0.064 0.032-0.128l0.032-0.224c0-0.032 0.032-0.064 0.032-0.128s0-0.128 0-0.16c0.032-0.032 0.032-0.064 0.032-0.128l0.064-0.192c0-0.064 0-0.128 0.032-0.16 0-0.032 0-0.064 0-0.128 0.032-0.128 0.032-0.192 0.064-0.32 0-0.032 0-0.032 0.032-0.064 0-0.032 0-0.128 0.032-0.192 0 0 0-0.032 0-0.032 0.032-0.128 0.064-0.224 0.064-0.384 0.032-0.064 0.032-0.16 0.064-0.192v-0.032c3.392-13.984 7.488-27.712 12.224-41.152l44.576 15.68c-5.44 15.392-9.888 31.264-13.28 47.168zM554.048 16.224c-86.656 0-170.272 25.536-241.856 73.888l26.464 39.136c63.712-43.040 138.24-65.824 215.392-65.824 212.416 0 385.248 172.864 385.248 385.248 0 212.448-172.864 385.312-385.248 385.312-212.448 0-385.248-172.864-385.248-385.312h-47.264c0 238.528 194.048 432.512 432.512 432.512s432.48-194.016 432.48-432.512c0-238.464-194.016-432.48-432.48-432.48z" />
<glyph unicode="&#xe91b;" glyph-name="password_hover" d="M548.512 302.976v-96.288c0-19.584-16.16-35.456-36.032-35.456s-36.032 15.872-36.032 35.456v96.288c-10.656 9.632-17.504 23.328-17.504 38.784 0 29.088 23.968 52.64 53.536 52.64s53.536-23.552 53.536-52.64c0-15.392-6.848-29.152-17.504-38.784zM948.608 592.736h-622.496v138.656c1.248 94.72 84.672 171.744 185.888 171.744 102.496 0 185.888-78.016 185.888-173.888v-28.448h57.664v28.448c0 127.2-109.248 230.72-243.584 230.72-132.704 0-241.952-102.208-243.616-228.256v-138.976h-192.992c-15.968 0-28.864-12.704-28.864-28.448v-505.152c0-67.904 56.096-123.168 125.024-123.168h680.832c68.992 0 125.056 55.264 125.056 123.168v505.152c0 15.744-12.928 28.448-28.864 28.448z" />
<glyph unicode="&#xe91c;" glyph-name="password" d="M919.776 59.136c0-36.576-30.24-66.272-67.36-66.272h-680.832c-37.088 0-67.36 29.696-67.36 66.272v476.768h815.52v-476.768zM948.576 592.736h-622.496v138.624c1.248 94.752 84.672 171.808 185.888 171.808 102.496 0 185.888-78.016 185.888-173.888v-28.448h57.728v28.448c0 127.2-109.28 230.72-243.616 230.72-132.64 0-241.952-102.208-243.584-228.256v-138.976h-193.024c-15.904 0-28.864-12.704-28.864-28.384v-505.216c0-67.872 56.096-123.168 125.056-123.168h680.832c68.928 0 125.024 55.296 125.024 123.168v505.216c0 15.68-12.896 28.384-28.864 28.384v0zM512.448 394.4c29.6 0 53.536-23.552 53.536-52.704 0-15.36-6.784-29.088-17.504-38.72v-96.288c0-19.584-16.096-35.456-36.032-35.456-19.872 0-35.968 15.872-35.968 35.456v96.288c-10.72 9.632-17.504 23.36-17.504 38.72 0 29.152 23.936 52.704 53.472 52.704v0zM418.72 206.688c0-50.88 42.080-92.288 93.728-92.288s93.728 41.44 93.728 92.288v76.32c11.296 17.44 17.536 37.792 17.536 58.688 0 60.416-49.952 109.536-111.296 109.536-61.312 0-111.232-49.12-111.232-109.536 0-20.896 6.24-41.248 17.504-58.688v-76.32z" />
<glyph unicode="&#xe91d;" glyph-name="payment_hover" d="M948.832 371.936h-158.528c-41.536 0-75.36 33.568-75.36 74.752 0 42.592 35.040 77.344 78.080 77.344h155.84v-152.096zM169.952 678.432c0 14.464 11.84 26.208 26.496 26.208h685.088v-52.448h-685.088c-14.656 0-26.496 11.744-26.496 26.208v0zM975.328 576.448h-40.864v173.504c0 42.208-34.624 76.48-77.248 76.48h-757.728c-42.56 0-77.248-34.272-77.248-76.48v-603.84c0-42.208 34.688-76.544 77.248-76.544h757.728c42.592 0 77.248 34.336 77.248 76.544v173.472h40.864c14.592 0 26.4 11.744 26.4 26.208v204.448c0 14.464-11.808 26.208-26.4 26.208v0zM794.88 489.824c-23.328 0-42.24-18.752-42.24-41.792 0-23.104 18.912-41.856 42.24-41.856 23.296 0 42.208 18.752 42.208 41.856 0 23.072-18.912 41.792-42.208 41.792z" />
<glyph unicode="&#xe91e;" glyph-name="payment" d="M948.832 371.968h-158.528c-41.536 0-75.36 33.568-75.36 74.752 0 42.592 35.040 77.344 78.080 77.344h155.84v-152.096zM881.568 146.048c0-13.28-10.944-24.096-24.352-24.096h-757.728c-13.408 0-24.32 10.816-24.32 24.096v603.904c0 13.28 10.912 24.096 24.32 24.096h757.728c13.408 0 24.352-10.816 24.352-24.096v-21.184c0-13.28-10.944-24.128-24.352-24.128h-660.736c-14.656 0-26.496-11.712-26.496-26.176s11.84-26.208 26.496-26.208h660.736c8.608 0 16.64 1.728 24.352 4.288v-80.064h-88.544c-72.256 0-130.976-58.24-130.976-129.728 0-70.112 57.568-127.168 128.256-127.168h91.264v-173.504zM975.328 576.448h-40.864v173.504c0 42.208-34.624 76.48-77.248 76.48h-757.728c-42.56 0-77.248-34.272-77.248-76.48v-603.904c0-42.176 34.688-76.48 77.248-76.48h757.728c42.592 0 77.248 34.336 77.248 76.48v173.504h40.864c14.592 0 26.4 11.744 26.4 26.208v204.448c0 14.464-11.808 26.208-26.4 26.208v0zM794.88 489.824c-23.328 0-42.24-18.752-42.24-41.792 0-23.104 18.912-41.856 42.24-41.856 23.296 0 42.208 18.752 42.208 41.856 0 23.072-18.912 41.792-42.208 41.792z" />
<glyph unicode="&#xe91f;" glyph-name="plus" d="M563.2 499.2h460.8v-102.4h-460.8v-460.8h-102.4v460.8h-460.8v102.4h460.8v460.8h102.4v-460.8z" />
<glyph unicode="&#xe920;" glyph-name="logo-pod" horiz-adv-x="1044" d="M968.205 40.13c28.897 0 52.229-23.286 52.229-52.055 0-28.775-23.332-52.075-52.229-52.075-28.83 0-52.179 23.3-52.179 52.075 0 28.769 23.35 52.055 52.179 52.055zM1011.18-11.925c0 24.127-19.155 43.606-42.976 43.606-23.795 0-42.912-19.479-42.912-43.606 0-24.11 19.117-43.641 42.912-43.641 23.821 0 42.976 19.531 42.976 43.641zM947.403 18.228h23.635c13.52 0 20.836-5.739 20.836-17.794 0-10.836-7.159-15.858-16.45-16.845l17.447-26.224h-9.282l-16.886 25.505h-10.009v-25.505h-9.291v60.863zM966.704-8.716c8.424 0 15.88 0.409 15.88 9.563 0 8.002-6.757 8.982-13.221 8.982h-12.668v-18.545h10.009zM351.409 805.063c21.203 0 36.015-14.367 36.015-34.926 0-15.867-10.51-30.907-26.782-38.32-50.658-23.379-88.875-47.192-120.244-74.899-51.345-44.517-88.555-99.322-113.749-167.621-4.59-13.366-8.471-26.654-12.243-39.507l-3.147-10.807c-0.239-1.709-1.894-3.215-3.526-3.215-1.934 0-2.647 2.35-2.647 3.827 0 131.776 70.479 261.164 183.917 337.644 8.93 5.956 19.577 12.824 30.907 18.603 10.751 5.939 21.933 9.22 31.5 9.22zM692.731 805.063c9.326 0 20.566-3.29 31.672-9.252 10.617-5.469 20.973-12.151 30.575-18.551 113.4-76.344 183.838-205.723 183.838-337.664 0-1.807-1.018-3.827-2.47-3.827-1.926 0-3.45 1.668-3.726 3.505l-2.109 7.381c-3.959 13.874-8.052 28.221-13.096 42.701-25.232 68.264-62.497 123.063-113.891 167.54-31.253 27.751-69.374 51.561-120.017 74.934-16.394 7.297-26.98 22.331-26.98 38.308 0 20.559 14.879 34.926 36.204 34.926zM388.575 960c12.293 0 22.346-3.664 29.068-10.569 6.039-6.342 9.23-14.559 9.23-23.764 0-11.022-4.535-21.246-12.409-28.012-9.241-7.787-27.14-15.371-41.504-21.469l-0.561-0.238c-32.934-13.305-57.157-24.246-90.856-43.888-140.211-84.705-223.923-232.041-223.923-394.126 0-256.040 208.331-464.343 464.42-464.343 255.909 0 464.103 208.303 464.103 464.343 0 162.286-83.671 309.626-223.85 394.132-33.871 19.885-58.044 30.759-90.757 43.864l-1.844 0.786c-13.966 5.956-31.372 13.375-40.119 20.909-7.674 6.737-12.069 16.964-12.069 28.041 0 9.728 3.054 17.727 9.134 23.796 6.289 6.789 16.49 10.537 28.728 10.537 16.15 0 36.387-5.393 61.869-16.494 201.577-83.876 326.804-269.604 326.804-484.684 0-286.999-234.174-520.485-521.998-520.485-287.874 0-522.080 233.486-522.080 520.485 0 215.005 125.189 400.721 326.772 484.698 25.188 10.932 46.004 16.479 61.843 16.479z" />
<glyph unicode="&#xe921;" glyph-name="logo-primary" horiz-adv-x="2394" d="M2366.571-6.627c15.053 0 27.229-12.336 27.229-27.549s-12.175-27.535-27.229-27.535c-15.027 0-27.222 12.322-27.222 27.535s12.195 27.549 27.222 27.549zM2388.954-34.176c0 12.776-9.986 23.094-22.383 23.094s-22.383-10.318-22.383-23.094c0-12.762 9.986-23.080 22.383-23.080s22.383 10.318 22.383 23.080zM2355.708-18.211h12.336c7.048 0 10.87-3.053 10.87-9.425 0-5.728-3.755-8.395-8.588-8.917l9.083-13.873h-4.839l-8.788 13.5h-5.221v-13.5h-4.853v32.214zM2365.782-32.47c4.391 0 8.273 0.223 8.273 5.051 0 4.225-3.501 4.753-6.894 4.753h-6.6v-9.804h5.221zM0.2 121.057v35.68h158.632v-35.68h-61.385v-181.706h-35.863v181.706h-61.385zM321.601 70.597v86.141h35.863v-217.386h-35.863v94.962h-92.616v-94.962h-35.876v217.386h35.876v-86.141h92.616zM444.946 37.665v-62.945h108.62v-35.369h-144.489v217.386h139.978v-35.376h-104.108v-48.328h60.488v-35.369h-60.488zM818.287 57.042c15.823-6.256 32.275-22.309 32.275-50.088 0-43.595-26.405-67.603-74.356-67.603h-85.782v217.386h88.794c39.216 0 62.623-21.523 62.623-57.569 0-18.375-8.119-32.85-23.554-42.126zM778.623-27.108c24.27 0 36.070 10.846 36.070 33.148 0 21.063-12.818 33.135-35.174 33.135h-55.033v-66.283h54.136zM778.917 72.418c25.107 0 27.055 19.086 27.055 24.936 0 11.787-4.699 25.836-27.055 25.836h-54.43v-50.772h54.43zM974.182 160.075c54.912 0 91.806-44.895 91.806-111.726 0-67.197-37.141-112.349-92.415-112.349-54.731 0-91.491 44.909-91.491 111.74 0 67.204 37.007 112.335 92.1 112.335zM973.278 124.097c-33.246 0-54.731-29.722-54.731-75.748 0-45.68 22.483-76.364 55.936-76.364 33.433 0 55.033 29.736 55.033 75.755 0 45.667-22.597 76.357-56.237 76.357zM1167.251 156.737c65.588 0 104.744-40.643 104.744-108.693 0-100.853-80.18-108.693-104.744-108.693h-59.611v217.386h59.611zM1143.51 121.362v-146.642h23.741c56.425 0 68.265 39.871 68.265 73.324s-11.841 73.317-68.265 73.317h-23.741zM1393.774 96.575l33.714 60.162h41.405l-77.141-131.51v-85.876h-35.863v85.876l-77.147 131.51h42.014l33.42-59.844c6.312-11.462 15.14-28.673 19.806-38.355 4.598 9.465 13.28 26.181 19.792 38.036zM1639.387 68.992c37.717-11.625 68.928-24.617 68.928-66.296 0-24.909-10.401-66.696-80.066-66.696-30.207 0-57.395 12.485-76.552 35.152l-1.299 1.544 25.575 25.179 1.493-1.639c13.802-15.152 34.183-24.563 53.185-24.563 41.499 0 41.499 21.747 41.499 28.89 0 14.8-10.756 22.559-46.023 33.229-41.947 12.62-67.422 23.27-67.422 64.773 0 36.215 29.471 61.51 71.646 61.51 27.449 0 49.819-9.377 70.401-29.519l1.539-1.523-25.301-25.938-1.533 1.564c-13.193 13.663-27.851 19.756-47.509 19.756-20.709 0-33.072-9.093-33.072-24.326 0-12.492 6.185-19.573 44.511-31.097zM1877.542 70.597v86.141h35.87v-217.386h-35.87v94.962h-92.609v-94.962h-35.863v217.386h35.863v-86.141h92.609zM2047.178 160.075c54.905 0 91.799-44.895 91.799-111.726 0-67.197-37.135-112.349-92.408-112.349-54.731 0-91.505 44.909-91.505 111.74 0 67.204 37.021 112.335 92.114 112.335zM2046.268 124.097c-33.246 0-54.731-29.722-54.731-75.748 0-45.68 22.476-76.364 55.943-76.364 33.433 0 55.019 29.736 55.019 75.755 0 45.667-22.597 76.357-56.231 76.357zM2270.937 156.737c43.072 0 69.832-26.371 69.832-68.822 0-42.634-27.563-69.12-71.947-69.12h-52.918v-79.445h-35.267v217.386h90.3zM2270.328 53.251c21.907 0 33.969 12.309 33.969 34.665 0 21.51-12.697 34.36-33.969 34.36h-54.424v-69.025h54.424zM1090.931 861.214c13.121 0 22.293-9.001 22.293-21.874 0-9.94-6.507-19.36-16.576-24.003-31.357-14.644-55.009-29.557-74.416-46.918-31.779-27.875-54.808-62.203-70.399-104.978-2.838-8.372-5.242-16.698-7.578-24.746l-1.948-6.771c-0.147-1.068-1.172-2.014-2.176-2.014-1.198 0-1.64 1.473-1.64 2.406 0 82.53 43.615 163.573 113.82 211.47 5.523 3.73 12.11 8.035 19.126 11.65 6.654 3.723 13.57 5.778 19.494 5.778zM1300.792 861.214c5.772 0 12.735-2.061 19.604-5.798 6.575-3.426 12.983-7.609 18.928-11.616 70.189-47.816 113.79-128.846 113.79-211.484 0-1.142-0.636-2.406-1.533-2.406-1.192 0-2.136 1.047-2.303 2.203l-1.312 4.615c-2.451 8.69-4.981 17.678-8.102 26.746-15.621 42.755-38.687 77.083-70.49 104.931-19.35 17.387-42.945 32.301-74.293 46.938-10.144 4.568-16.699 13.988-16.699 23.996 0 12.873 9.213 21.874 22.41 21.874zM1076.124 949.704c15.595 6.83 28.484 10.296 38.287 10.296 7.606 0 13.827-2.286 17.992-6.601 3.736-3.965 5.712-9.103 5.712-14.854 0-6.884-2.806-13.276-7.68-17.504-5.718-4.868-16.8-9.608-25.692-13.418l-0.348-0.155c-20.382-8.307-35.374-15.144-56.238-27.423-86.791-52.937-138.603-145.015-138.603-246.311 0-160.018 128.954-290.193 287.464-290.193 158.409 0 287.277 130.175 287.277 290.193 0 101.424-51.792 193.502-138.556 246.318-20.971 12.427-35.93 19.223-56.178 27.416l-1.145 0.486c-8.644 3.722-19.418 8.361-24.835 13.067-4.747 4.214-7.466 10.6-7.466 17.524 0 6.082 1.888 11.078 5.658 14.874 3.884 4.241 10.198 6.581 17.777 6.581 9.997 0 22.525-3.371 38.3-10.303 124.77-52.418 202.287-168.494 202.287-302.909 0-179.363-144.957-325.282-323.119-325.282-178.189 0-323.153 145.919-323.153 325.282 0 134.369 77.491 250.431 202.26 302.916z" />
<glyph unicode="&#xe922;" glyph-name="preferences_hover" d="M512 236.16c-91.104 0-165.248 74.112-165.248 165.184 0 91.136 74.144 165.248 165.248 165.248s165.248-74.112 165.248-165.248c0-91.104-74.144-165.184-165.248-165.184zM971.584 508.96l-71.872 12.192c-7.488 24.192-17.12 47.52-28.896 69.728l42.368 59.296c17.952 25.216 15.168 59.68-6.848 81.504l-63.712 63.712c-11.968 11.968-27.84 18.56-44.672 18.56-13.312 0-25.92-4.064-36.64-11.744l-59.424-42.368c-23.136 12.192-47.296 22.208-72.32 29.728l-11.968 70.976c-5.152 30.592-31.424 52.864-62.464 52.864h-90.080c-31.008 0-57.312-22.304-62.464-52.864l-12.384-72.704c-23.968-7.488-47.296-17.376-69.536-29.312l-58.848 42.368c-10.656 7.712-23.52 11.776-36.768 11.776-16.896 0-32.96-6.656-44.736-18.624l-63.968-63.776c-21.824-21.824-24.8-56.224-6.848-81.504l42.784-60.096c-11.744-22.432-21.184-45.76-28.448-69.952l-71.040-11.968c-30.592-5.12-52.832-31.424-52.832-62.464v-90.080c0-31.008 22.24-57.312 52.832-62.464l72.704-12.384c7.488-23.968 17.376-47.296 29.312-69.504l-42.112-58.656c-17.952-25.216-15.168-59.68 6.848-81.504l63.712-63.712c12-12 27.84-18.656 44.736-18.656 13.28 0 25.888 4.096 36.576 11.776l60.128 42.784c21.536-11.296 44.256-20.48 67.584-27.84l11.968-71.808c5.12-30.624 31.424-52.832 62.464-52.832h90.304c31.008 0 57.312 22.208 62.464 52.832l12.16 71.808c24.192 7.552 47.52 17.184 69.728 28.96l59.296-42.4c10.656-7.68 23.52-11.776 36.768-11.776 16.896 0 32.736 6.656 44.736 18.656l63.712 63.712c21.824 21.824 24.8 56.288 6.848 81.504l-42.368 59.424c11.776 22.496 21.6 45.792 28.864 69.728l71.872 12c30.592 5.152 52.896 31.456 52.896 62.464v90.080c0.416 31.040-21.856 57.344-52.416 62.464z" />
<glyph unicode="&#xe923;" glyph-name="preferences" d="M309.632 747.488c4.896 0 9.824 1.248 14.208 3.84 26.624 15.936 55.424 28.256 85.536 36.064 10.464 2.848 18.432 11.392 20.256 22.080l14.752 86.56c0.416 2.656 2.656 4.512 5.344 4.512h86.144c2.656 0 4.896-1.824 5.312-4.512l14.304-85.344c1.856-10.816 9.824-19.648 20.48-22.304 30.944-7.776 60.384-19.808 87.808-36.032 4.416-2.528 9.248-3.872 14.112-3.872 5.6 0 11.168 1.728 15.968 5.12l70.56 50.72c1.024 0.608 2.048 1.056 3.072 1.056 0.832 0 2.464-0.224 3.872-1.632l60.992-60.96c1.824-1.856 2.048-4.704 0.608-6.976l-50.592-70.976c-6.336-8.864-6.72-20.704-1.216-30.112 15.936-26.848 27.84-55.648 35.616-85.76 2.624-10.656 11.456-18.624 22.080-20.256l85.92-14.528c2.656-0.416 4.512-2.656 4.512-5.312v-86.208h-0.192c0-2.624-1.856-4.864-4.512-5.312l-85.92-14.304c-10.848-1.856-19.488-9.824-22.112-20.256-7.776-30.112-19.68-58.976-35.616-85.76-5.536-9.44-5.088-21.088 1.248-30.112l50.528-71.232c1.44-2.048 1.216-5.088-0.608-6.944l-60.96-60.96c-1.44-1.44-2.848-1.632-3.904-1.632-1.216 0-2.24 0.448-3.040 1.024l-71.008 50.528c-4.704 3.392-10.272 5.088-15.904 5.088-4.896 0-9.792-1.248-14.208-3.84-26.816-15.936-55.648-27.84-85.696-35.584-10.688-2.656-18.624-11.488-20.256-22.112l-14.56-85.92c-0.416-2.656-2.624-4.544-5.312-4.544h-86.144c-2.656 0-4.928 1.856-5.312 4.544l-14.368 85.92c-1.824 10.848-9.76 19.456-20.224 22.112-29.248 7.584-57.536 19.2-83.936 34.336-4.288 2.496-9.216 3.68-13.888 3.68-5.536 0-11.264-1.632-15.936-5.12l-71.648-50.944c-1.024-0.608-2.048-1.024-3.072-1.024-0.832 0-2.464 0.224-3.872 1.632l-60.992 60.96c-1.824 1.824-2.048 4.704-0.608 6.944l50.368 70.624c6.368 8.992 6.72 20.896 1.216 30.272-15.936 26.624-28.192 55.488-35.968 85.536-2.88 10.432-11.488 18.432-22.080 20.256l-86.592 14.752c-2.624 0.416-4.448 2.656-4.448 5.312v86.208c0 2.624 1.824 4.896 4.448 5.312l85.344 14.304c10.816 1.856 19.648 9.824 22.272 20.48 7.616 30.112 19.264 59.136 35.008 85.984 5.536 9.408 4.928 21.024-1.44 29.888l-50.944 71.584c-1.44 2.048-1.248 5.088 0.608 6.944l60.96 60.96c1.472 1.472 2.88 1.696 3.872 1.696 1.28 0 2.272-0.448 3.104-1.056l70.624-50.304c4.768-3.392 10.432-5.088 16.032-5.088zM535.392 955.552h-86.112c-29.664 0-54.848-21.28-59.744-50.528l-11.872-69.536c-22.88-7.2-45.184-16.608-66.528-28.064l-56.224 40.512c-10.24 7.36-22.496 11.232-35.232 11.232-16.16 0-31.52-6.336-42.752-17.824l-61.184-60.96c-20.896-20.832-23.776-53.824-6.592-77.952l40.96-57.536c-11.264-21.472-20.256-43.776-27.2-66.912l-68-11.392c-29.248-4.928-50.496-30.112-50.496-59.744v-86.208c0-29.664 21.248-54.816 50.496-59.744l69.6-11.84c7.168-22.944 16.608-45.248 28.064-66.464l-40.352-56.096c-17.152-24.128-14.528-57.088 6.592-77.952l60.96-60.96c11.488-11.488 26.624-17.824 42.784-17.824 12.64 0 24.768 3.872 34.944 11.232l57.536 40.96c20.672-10.848 42.336-19.648 64.64-26.592l11.456-68.736c4.896-29.28 30.112-50.592 59.808-50.592h86.336c29.664 0 54.848 21.28 59.744 50.592l11.68 68.736c23.104 7.136 45.408 16.352 66.688 27.616l56.672-40.544c10.24-7.36 22.496-11.232 35.168-11.232 16.192 0 31.296 6.336 42.784 17.824l60.96 60.96c20.896 20.896 23.776 53.824 6.592 77.952l-40.512 56.896c11.264 21.504 20.672 43.808 27.616 66.688l68.736 11.456c29.248 4.928 50.592 30.112 50.592 59.744v86.208c0.352 29.664-20.896 54.816-50.144 59.712l-68.736 11.68c-7.2 23.136-16.416 45.472-27.68 66.688l40.544 56.736c17.152 24.128 14.528 57.088-6.592 77.952l-60.96 60.96c-11.456 11.488-26.624 17.824-42.752 17.824-12.704 0-24.8-3.904-35.008-11.264l-56.864-40.512c-22.112 11.68-45.28 21.28-69.184 28.448l-11.488 67.936c-4.896 29.248-30.048 50.528-59.744 50.528zM494.208 677.152c-116.768 0-211.488-94.656-211.488-211.424s94.688-211.488 211.488-211.488c116.768 0 211.488 94.688 211.488 211.488s-94.688 211.424-211.488 211.424zM494.208 623.776c87.136 0 158.048-70.912 158.048-158.048s-70.912-158.048-158.048-158.048c-87.136 0-158.048 70.912-158.048 158.048s70.912 158.048 158.048 158.048z" />
<glyph unicode="&#xe924;" glyph-name="privacy_hover" d="M366.24 245.728c0-39.488 32.192-71.68 71.68-71.68h148.128c39.488 0 71.68 32.192 71.68 71.68v113.216h-291.488v-113.216zM719.136 245.728c0-73.408-59.712-133.12-133.12-133.12h-148.064c-73.408 0-133.12 59.712-133.12 133.12v143.936c0 16.96 13.76 30.656 30.72 30.656h58.944c0 90.304 0.064 91.584 0.448 94.272 0.352 57.28 53.056 107.68 117.056 107.68 64.832 0 117.504-51.008 117.504-113.728v-30.72h-61.376v30.72c0 28.832-25.184 52.32-56.128 52.32-30.56 0-55.712-23.2-56.064-51.648-0.064-3.584-0.064-60.736-0.064-88.896h232.544c16.96 0 30.72-13.728 30.72-30.656v-143.936zM972.416 595.424c-0.16 2.624-0.832 5.056-1.696 7.584-0.448 1.472-0.704 2.976-1.376 4.352-1.216 2.304-3.008 4.256-4.768 6.24-0.96 1.024-1.472 2.4-2.624 3.328l-63.808 53.952-0.928 207.68c-0.064 16.832-14.144 30.464-31.488 30.464h-150.208c-17.344 0-31.488-13.664-31.488-30.624v-47.456l-159.168 122.464c-11.616 8.896-28.064 8.8-39.424-0.32l-422.72-335.552c-7.328-5.824-11.584-14.496-11.584-23.712v-627.264c0-16.832 14.080-30.56 31.424-30.56h858.72c17.344 0 31.424 13.728 31.424 30.56v627.264c0 0.608-0.32 1.024-0.352 1.6v0z" />
<glyph unicode="&#xe925;" glyph-name="privacy" d="M708.928 245.728c0-39.488-32.192-71.68-71.68-71.68h-148.128c-39.488 0-71.68 32.192-71.68 71.68v113.216h291.488v-113.216zM739.648 420.32h-232.544c0 28.16 0 85.312 0.064 88.896 0.32 28.48 25.504 51.648 56 51.648 30.912 0 56.128-23.488 56.128-52.32v-30.72h61.376v30.72c0 62.72-52.672 113.728-117.504 113.728-64 0-116.672-50.368-117.056-107.68-0.416-2.656-0.448-3.936-0.448-94.272h-58.944c-16.96 0-30.72-13.728-30.72-30.656v-143.936c0-73.408 59.712-133.12 133.12-133.12h148.128c73.376 0 133.056 59.712 133.056 133.12v143.936c0 16.96-13.728 30.656-30.656 30.656v0zM165.28-2.848v582.144l391.584 310.848 404.224-311.136v-581.824h-795.808zM885.664 847.84l0.608-133.184-88.128 67.84v65.344h87.488zM1023.648 595.424c-0.16 2.56-0.864 5.024-1.728 7.52-0.416 1.472-0.672 3.008-1.376 4.416-1.184 2.304-2.976 4.192-4.768 6.208-0.928 1.088-1.472 2.464-2.56 3.328l-63.84 53.952-0.928 207.712c-0.064 16.832-14.080 30.464-31.424 30.464h-150.272c-17.344 0-31.424-13.728-31.424-30.624v-47.52l-159.232 122.528c-11.616 8.864-28 8.768-39.424-0.32l-422.72-335.616c-7.328-5.792-11.584-14.496-11.584-23.712v-627.264c0-16.832 14.144-30.528 31.488-30.528h858.688c17.344 0 31.424 13.664 31.424 30.528v627.264c0 0.576-0.256 1.088-0.32 1.632v0z" />
<glyph unicode="&#xe926;" glyph-name="profile_hover" d="M375.456 507.904c41.088 0 74.528 33.408 74.528 74.464s-33.408 74.464-74.528 74.464c-41.056 0-74.464-33.408-74.464-74.464s33.408-74.464 74.464-74.464zM375.456 656.864c41.088 0 74.528-33.408 74.528-74.464s-33.408-74.464-74.528-74.464c-41.056 0-74.464 33.408-74.464 74.464s33.408 74.464 74.464 74.464zM996.032 820.352h-968.064c-15.456 0-27.968-12.672-27.968-28.288v-688.16c0-15.584 12.512-28.256 27.968-28.256h968.064c15.456 0 27.968 12.672 27.968 28.256v688.16c0 15.648-12.512 28.288-27.968 28.288v0zM621.152 171.040h-55.936v28.288c0 93.792-85.376 170.112-190.368 170.112-104.96 0-190.336-76.32-190.336-170.112v-28.288h-55.936v28.288c0 124.96 110.496 226.688 246.272 226.688 135.808 0 246.304-101.696 246.304-226.688v-28.288zM903.392 497.344v-56.544h-307.104v56.544h307.104zM375.424 712.832c72.064 0 130.464-58.4 130.464-130.464s-58.4-130.464-130.464-130.464c-72 0-130.368 58.4-130.368 130.464s58.368 130.464 130.368 130.464zM903.392 622.784v-56.544h-307.104v56.544h307.104z" />
<glyph unicode="&#xe927;" glyph-name="profile" d="M375.456 712.832c-72.064 0-130.432-58.368-130.432-130.432s58.368-130.464 130.432-130.464c72.064 0 130.464 58.4 130.464 130.464s-58.4 130.432-130.464 130.432zM375.456 656.864c41.088 0 74.528-33.408 74.528-74.464 0-41.088-33.408-74.528-74.528-74.528-41.056 0-74.464 33.408-74.464 74.528 0 41.056 33.408 74.464 74.464 74.464zM55.904 132.192h912.192v631.616h-912.192v-631.616zM996.032 75.648h-968.064c-15.392 0-27.968 12.672-27.968 28.256v688.224c0 15.584 12.576 28.256 27.968 28.256h968.064c15.392 0 27.968-12.672 27.968-28.256v-688.224c0-15.584-12.576-28.256-27.968-28.256v0zM621.088 171.072h-55.904v28.256c0 93.824-85.376 170.112-190.368 170.112-104.96 0-190.336-76.288-190.336-170.112v-28.256h-55.936v28.256c0 124.96 110.496 226.688 246.272 226.688 135.808 0 246.272-101.696 246.272-226.688v-28.256zM596.288 566.272h307.104v56.544h-307.104zM596.288 440.8h307.104v56.544h-307.104z" />
<glyph unicode="&#xe928;" glyph-name="search_hover" horiz-adv-x="928" d="M660.704 181.152c-65.952-44.576-147.232-71.168-234.72-71.168-0.224 0-0.448 0-0.64 0h0.032c-234.528 0-424.672 190.112-424.672 424.672s190.112 424.672 424.672 424.672c234.528 0 424.672-190.112 424.672-424.672 0-0.16 0-0.32 0-0.512 0-123.52-52.864-234.688-137.216-312.096l-0.32-0.288 206.464-206.496-46.208-46.176-212.064 212.064zM425.344 175.328c198.464 0 359.328 160.896 359.328 359.328s-160.896 359.328-359.328 359.328v0c-198.464 0-359.328-160.896-359.328-359.328s160.896-359.328 359.328-359.328v0zM542.048 804.608c-72.288-70.304-116.64-165.344-116.64-269.984 0-104.576 44.384-199.648 116.704-269.92-34.304-15.2-74.336-24.032-116.448-24.032-162.368 0-293.984 131.616-293.984 293.984s131.616 293.984 293.984 293.984c42.080 0 82.112-8.832 118.336-24.768l-1.888 0.736z" />
<glyph unicode="&#xe929;" glyph-name="search" horiz-adv-x="928" d="M660.704 181.152c-65.952-44.576-147.232-71.168-234.72-71.168-0.224 0-0.448 0-0.64 0h0.032c-234.528 0-424.672 190.112-424.672 424.672s190.112 424.672 424.672 424.672c234.528 0 424.672-190.112 424.672-424.672 0-0.16 0-0.32 0-0.512 0-123.52-52.864-234.688-137.216-312.096l-0.32-0.288 206.464-206.496-46.208-46.176-212.064 212.064zM425.344 175.328c198.464 0 359.328 160.896 359.328 359.328s-160.896 359.328-359.328 359.328v0c-198.464 0-359.328-160.896-359.328-359.328s160.896-359.328 359.328-359.328v0z" />
<glyph unicode="&#xe92a;" glyph-name="shop_hover" horiz-adv-x="960" d="M886.752 2.592h41.248v-41.28h-919.168v41.312h41.76v509.184c-25.92 28.736-41.76 67.008-41.76 108.96 0 0.064 0 0.128 0 0.192v0l83.552 184.384v129.248h752.064v-129.248l83.552-184.512c0-41.536-15.552-79.456-41.248-108.48v-509.824zM819.872 466.56v45.184c-17.056-9.152-37.312-14.56-58.816-14.56-0.064 0-0.128 0-0.16 0v0c-69.248 0-125.344 55.36-125.344 123.648h184.32v41.248h-702.912v-41.248h184.32c0-68.288-56.096-123.648-125.312-123.648-0.064 0-0.096 0-0.16 0-21.504 0-41.76 5.376-59.488 14.88l0.672-0.32v-45.184c18.336-6.816 38.208-10.56 58.976-10.56 0.16 0 0.32 0 0.48 0 62.176 0 116.416 33.888 145.312 84.192l0.416 0.8c29.312-51.104 83.584-84.992 145.728-84.992 0.192 0 0.352 0 0.544 0h-0.032c0.16 0 0.32 0 0.48 0 62.176 0 116.416 33.888 145.312 84.192l0.416 0.8c29.312-51.104 83.584-84.992 145.728-84.992 0.16 0 0.352 0 0.512 0h-0.032c0.032 0 0.064 0 0.128 0 21.152 0 41.376 3.872 60 10.976l-1.152-0.384zM171.040 826.976v-41.216h594.72v41.216h-594.688zM593.728 620.864c0-68.288-56.096-123.648-125.344-123.648-69.216 0-125.344 55.36-125.344 123.648h250.688zM271.072 323.552h164.896v-271.552h41.216v313.344h-247.328v-313.344h41.216v271.552z" />
<glyph unicode="&#xe92b;" glyph-name="shop" horiz-adv-x="960" d="M886.752 2.592h41.248v-41.28h-919.168v41.312h41.76v509.184c-25.92 28.736-41.76 67.008-41.76 108.96 0 0.064 0 0.128 0 0.192v0l83.552 184.384v129.248h752.064v-129.248l83.552-184.512c0-41.536-15.552-79.456-41.248-108.48v-509.824zM844.448 2.592v475.488c-23.904-13.888-52.64-22.080-83.264-22.080-0.128 0-0.224 0-0.352 0h0.032c-0.16 0-0.32 0-0.48 0-62.176 0-116.416 33.888-145.312 84.192l-0.416 0.8c-29.312-51.104-83.584-84.992-145.728-84.992-0.16 0-0.352 0-0.512 0h0.032c-0.16 0-0.352 0-0.512 0-62.176 0-116.416 33.888-145.312 84.192l-0.416 0.8c-29.312-51.104-83.584-84.992-145.728-84.992-0.16 0-0.352 0-0.512 0h0.032c-0.096 0-0.224 0-0.352 0-30.4 0-58.912 8.064-83.52 22.176l0.832-0.448v-475.168h751.552zM809.216 785.792h-681.6l-56.128-123.648h793.856l-56.096 123.648zM134.176 888.8v-61.792h668.48v61.792h-668.48zM886.208 620.864h-250.688c0-68.288 56.128-123.648 125.344-123.648s125.344 55.36 125.344 123.648zM593.728 620.864h-250.688c0-68.288 56.128-123.648 125.344-123.648 69.248 0 125.344 55.36 125.344 123.648zM301.312 620.864h-250.688c0-68.288 56.128-123.648 125.344-123.648s125.344 55.36 125.344 123.648zM271.072 323.552v-271.552h-41.216v313.344h247.328v-313.344h-41.248v271.552h-164.864z" />
<glyph unicode="&#xe92c;" glyph-name="sign-out_hover" d="M0 820.384v-716.48l0.48-28.256h54.592v716.48l-0.48 28.256zM1010.688 484.992l-212.512 254.752c-10.624 12.672-25.792 19.584-41.376 19.584-6.368 0-12.8-1.216-19.040-3.584-21.376-8.224-35.552-29.376-35.552-52.96v-53.376h-486.944c-30.176 0-54.656-25.312-54.656-56.544v-289.664c0-31.232 24.48-56.544 54.656-56.544h486.944v-53.376c0-23.552 14.208-44.736 35.552-52.96 6.24-2.368 12.672-3.552 19.040-3.552 15.584 0 30.752 6.88 41.376 19.552l212.512 254.752c17.728 21.216 17.728 52.736 0 73.952z" />
<glyph unicode="&#xe92d;" glyph-name="sign-out" d="M0 820.384v-716.512l0.48-28.16h54.592v716.416l-0.48 28.256zM863.104 320.672l-106.272-127.36v109.856h-541.6v289.696h541.6v109.888l212.512-254.752-106.272-127.36zM1010.688 484.96l-212.576 254.752c-10.56 12.672-25.728 19.584-41.344 19.584-6.368 0-12.832-1.152-19.040-3.552-21.376-8.224-35.552-29.376-35.552-53.024v-53.376h-486.944c-30.176 0-54.656-25.28-54.656-56.512v-289.696c0-31.232 24.48-56.544 54.656-56.544h486.944v-53.28c0-23.648 14.208-44.768 35.552-53.024 6.176-2.432 12.672-3.552 19.040-3.552 15.584 0 30.752 6.88 41.344 19.584l212.576 254.688c17.728 21.216 17.728 52.704 0 73.92v0z" />
<glyph unicode="&#xe92e;" glyph-name="tag" d="M927.808 960h-288.576c-52.896 0-126.784-30.592-164.192-68l-446.976-446.976c-37.408-37.408-37.408-98.624 0-136.032l344.896-344.896c37.408-37.408 98.624-37.408 136.032 0l446.976 446.976c37.408 37.408 68 111.296 68 164.192v288.576c0 52.896-43.296 96.192-96.192 96.192zM800 640c-53.024 0-96 42.976-96 96s42.976 96 96 96 96-42.976 96-96-42.976-96-96-96z" />
<glyph unicode="&#xe92f;" glyph-name="tick" horiz-adv-x="1312" d="M192.448 541.696l258.496-258.496 673.216 672.928 155.136-155.072-828.192-828.352-413.76 413.856z" />
<glyph unicode="&#xe930;" glyph-name="trash_hover" d="M936.512 749.056h-926.272v50.176h250.88v150.528h501.76v-150.528h250.88v-50.176h-77.248zM905.536 698.88l-59.008-752.64h-669.056l-58.976 752.64h787.040zM311.296 899.584v-100.352h401.408v100.352h-401.408z" />
<glyph unicode="&#xe931;" glyph-name="trash" d="M185.952 799.232h75.36v150.528h501.632v-150.528h250.784v-50.176h-104.288l-62.944-802.816h-669.056l-62.944 802.816h-104.288v50.176h175.712zM312.032 799.232h400.8v99.936h-400.8v-99.936zM160.768 749.056l60.448-752.64h581.6l60.416 752.64h-702.464z" />
<glyph unicode="&#xe932;" glyph-name="truck_hover" horiz-adv-x="1344" d="M904.64 59.712v456.384h-68.16v-456.352h-383.232c-15.104-51.392-61.888-88.96-117.184-88.96-55.328 0-102.144 37.568-117.216 88.96h-151.904c-19.296 0.16-34.912 15.84-34.912 35.168 0 0.096 0 0.224 0 0.32v-0.032 794.432c0 19.648 15.584 35.52 34.912 35.52h682.912c87.968 0 159.296-72.576 159.296-162.112v-171.904h192.32c53.952 0 103.648-29.92 129.568-78.048l92.032-170.592c2.816-5.248 4.32-11.136 4.224-17.088v-230.272c0-0.096 0-0.192 0-0.32 0-19.328-15.584-35.008-34.848-35.168h-109.536c-15.040-51.392-61.888-88.96-117.152-88.96-55.328 0-102.176 37.568-117.184 88.96h-43.936zM215.936 107.136h68.928c5.344 23.68 26.272 41.44 51.2 41.44s45.856-17.76 51.168-41.44h68.928c-6.016 61.6-57.44 109.408-120.064 109.664h-0.032c-62.656-0.224-114.112-48.032-120.064-109.152l-0.032-0.512zM945.408 107.136h68.928c5.344 23.68 26.272 41.44 51.2 41.44 24.896 0 45.824-17.76 51.168-41.44h68.928c-6.016 61.6-57.44 109.408-120.064 109.664h-0.032c-62.656-0.224-114.112-48.032-120.096-109.152l-0.032-0.512z" />
<glyph unicode="&#xe933;" glyph-name="truck" horiz-adv-x="1344" d="M1257.504 130.752h-74.56c-15.040 51.328-61.888 88.96-117.184 88.96s-102.176-37.632-117.184-88.96h-39.456v389.376h192.32c28.48 0 54.688-15.776 68.352-41.184l87.712-162.624v-185.664zM1118.208 95.2c0-29.44-23.552-53.44-52.448-53.44-29.056 0.288-52.48 23.904-52.48 52.992 0 0.16 0 0.32 0 0.48v-0.032c0 29.44 23.52 53.44 52.48 53.44 28.928 0 52.448-24 52.448-53.44zM388.512 95.2c0-29.44-23.52-53.44-52.448-53.44s-52.544 24-52.544 53.44c0 29.44 23.584 53.44 52.544 53.44s52.48-24 52.48-53.44zM101.824 854.208h648.064c49.408 0 89.504-40.768 89.504-91.104v-632.384h-386.144c-15.104 51.392-61.888 88.96-117.184 88.96-55.328 0-102.144-37.568-117.216-88.96h-117.056v723.488zM1231.072 513.184c-25.248 46.656-73.728 77.856-129.536 78.048h-192.352v171.84c-0.032 89.632-71.36 162.208-159.328 162.208h-682.976c-19.296-0.16-34.848-15.84-34.848-35.168 0-0.128 0-0.256 0-0.384v0.032-794.496c0-19.584 15.584-35.488 34.912-35.488h151.904c15.104-51.392 61.888-88.96 117.216-88.96 55.296 0 102.080 37.568 117.184 88.96h495.36c15.008-51.392 61.856-88.96 117.184-88.96 55.296 0 102.080 37.568 117.184 88.96h109.472c19.296 0.192 34.848 15.84 34.848 35.168 0 0.096 0 0.224 0 0.32v-0.032 230.272c0 0.096 0 0.192 0 0.288 0 6.144-1.568 11.936-4.32 16.992l0.096-0.192-92.032 170.592z" />
<glyph unicode="&#xe934;" glyph-name="wishlist_hover" d="M494.208 49.12c-0.832 0-1.632 0.192-2.368 0.576-111.264 57.696-212.672 131.616-301.376 219.616-48.736 48.448-83.296 91.36-108.8 135.040-33.536 57.344-50.496 112.832-50.496 164.96 0 70.208 23.2 135.424 65.28 183.552 45.056 51.616 109.312 83.168 176.32 86.592 4.192 0.224 8.32 0.32 12.48 0.32 41.888 0 83.2-10.848 119.456-31.392 25.248-14.24 48.224-34.816 68.288-61.088l21.248-27.744 21.248 27.744c20.064 26.272 42.976 46.784 68.192 61.024 36.32 20.576 77.792 31.424 119.808 31.424 4.064 0 8.096-0.128 12.192-0.32 67.008-3.424 131.264-35.008 176.256-86.592 42.112-48.224 65.312-113.408 65.312-183.552 0-52.192-16.96-107.712-50.432-164.992-25.6-43.712-60.192-86.624-108.896-135.040-88.736-88.032-190.112-161.92-301.28-219.584l-2.4-0.576zM285.248 866.528c-4.64 0-9.216-0.128-13.856-0.352-74.208-3.84-145.728-39.232-195.008-95.712-46.976-53.664-71.936-125.6-71.936-201.152 0-58.816 19.424-118.976 54.144-178.432 27.904-47.776 64.32-92.032 113.056-140.48 90.432-89.696 194.56-165.632 307.904-224.384 4.576-2.4 9.632-3.552 14.656-3.552 5.12 0 10.144 1.152 14.688 3.552 113.312 58.784 217.44 134.688 307.872 224.352 48.704 48.448 85.184 92.736 113.088 140.48 34.72 59.424 54.080 119.584 54.080 178.496 0 75.584-24.896 147.36-71.904 201.152-49.28 56.544-120.832 91.936-195.008 95.712-4.512 0.224-9.024 0.352-13.536 0.352-46.432 0-92.704-12.064-132.992-34.912-28.928-16.352-54.4-39.456-76.32-68.064-21.92 28.672-47.328 51.744-76.32 68.128-40.256 22.784-86.336 34.848-132.64 34.848zM285.248 813.088v0c37.312 0 74.048-9.664 106.368-27.968 21.984-12.416 42.24-30.624 60.16-54.048l42.432-55.52 42.432 55.52c17.888 23.36 38.144 41.568 60.224 54.048 32.32 18.304 69.152 27.904 106.624 27.904 3.616 0 7.2-0.096 10.816-0.256 59.808-3.040 117.216-31.264 157.504-77.472 37.856-43.328 58.688-102.272 58.688-166.016 0-47.328-15.712-98.304-46.848-151.52-24.256-41.632-57.568-82.752-104.544-129.504-84.16-83.488-179.904-153.952-284.928-209.664-104.992 55.712-200.736 126.208-284.864 209.6-47.072 46.784-80.32 87.968-104.64 129.568-31.072 53.28-46.784 104.224-46.784 151.52 0 63.808 20.8 122.752 58.784 166.080 40.192 46.112 97.632 74.4 157.568 77.408 3.648 0.224 7.36 0.32 11.008 0.32z" />
<glyph unicode="&#xe935;" glyph-name="wishlist" d="M293.568 890.176c-4.832 0-9.632-0.128-14.464-0.384-77.6-4-152.352-40.992-203.872-100.064-49.12-56.096-75.232-131.296-75.232-210.304 0-61.472 20.288-124.384 56.608-186.496 29.184-49.952 67.264-96.256 118.176-146.912 94.528-93.728 203.392-173.088 321.92-234.592 4.8-2.464 10.048-3.712 15.328-3.712 5.344 0 10.624 1.248 15.36 3.776 118.464 61.408 227.328 140.768 321.856 234.528 50.912 50.656 89.056 96.96 118.24 146.848 36.32 62.144 56.544 124.96 56.544 186.56 0 79.072-26.016 154.080-75.168 210.304-51.52 59.104-126.336 96.128-203.872 100.064-4.704 0.224-9.44 0.384-14.144 0.384-48.544 0-96.896-12.608-139.040-36.48-30.24-17.088-56.864-41.248-79.776-71.168-22.912 29.984-49.472 54.080-79.776 71.2-42.080 23.84-90.304 36.448-138.656 36.448zM293.568 834.336c39.008 0 77.408-10.112 111.2-29.216 23.008-12.992 44.16-32.032 62.88-56.512l44.352-58.048 44.352 58.048c18.72 24.48 39.904 43.488 62.976 56.512 33.792 19.136 72.288 29.216 111.488 29.216 3.776 0 7.552-0.128 11.296-0.32 62.496-3.168 122.56-32.672 164.672-80.992 39.552-45.28 61.344-106.912 61.344-173.568 0-49.472-16.416-102.784-48.96-158.4-25.376-43.488-60.192-86.528-109.28-135.392-87.968-87.264-188.096-160.96-297.888-219.168-109.76 58.24-209.888 131.904-297.792 219.136-49.184 48.928-83.968 91.968-109.376 135.456-32.48 55.712-48.928 109.024-48.928 158.4 0 66.688 21.728 128.32 61.44 173.6 42.016 48.224 102.080 77.792 164.736 80.928 3.808 0.224 7.648 0.32 11.488 0.32z" />
<glyph unicode="&#xe936;" glyph-name="bubble" d="M512 896c282.784 0 512-186.24 512-416s-229.216-416-512-416c-27.168 0-53.824 1.728-79.84 5.056-109.984-109.984-241.248-129.696-368.16-132.608v26.912c68.544 33.568 128 94.752 128 164.64 0 9.76-0.768 19.328-2.176 28.704-115.808 76.256-189.824 192.768-189.824 323.296 0 229.76 229.216 416 512 416z" />
<glyph unicode="&#xe937;" glyph-name="play" d="M192 832l640-384-640-384z" />
<glyph unicode="&#xe938;" glyph-name="wheelchair" horiz-adv-x="896" d="M300.81 777.787l10.37-183.609 234.083-0.1v-85.752l-225.468 0.080 4.228-57.952 311.499 2.074 132.936-306.892 100.948 36.415 27.919-66.508-180.358-70.755-137.382 321.929-335.011 0.12-32.526 457.656c-7.119 13.202-11.407 28.896-11.407 44.232 0 50.275 41.021 91.276 91.296 91.276 50.255 0 91.256-41.001 91.256-91.276 0-46.705-36.016-86.65-82.382-90.937zM637.735 121.404c-56.517-111.757-174.894-185.404-301.089-185.404-185.404 0-336.646 151.223-336.646 336.626 0 130.163 78.912 251.133 196.631 304.778l7.638-99.432c-69.658-43.873-112.574-123.044-112.574-206.044 0-134.471 109.722-244.174 244.213-244.174 123.044 0 227.941 94.427 242.279 215.576l59.548-121.927z" />
<glyph unicode="&#xe939;" glyph-name="twitter" d="M1024 765.568c-37.664-16.704-78.176-28-120.672-33.088 43.36 26.016 76.672 67.168 92.384 116.224-40.608-24.064-85.568-41.568-133.408-50.976-38.336 40.832-92.928 66.336-153.344 66.336-116.032 0-210.080-94.048-210.080-210.080 0-16.48 1.856-32.512 5.44-47.872-174.592 8.768-329.408 92.416-433.024 219.52-18.080-31.040-28.448-67.104-28.448-105.632 0-72.896 37.088-137.184 93.472-174.88-34.432 1.088-66.816 10.528-95.168 26.272-0.032-0.864-0.032-1.76-0.032-2.656 0-101.792 72.416-186.688 168.512-205.984-17.632-4.8-36.192-7.36-55.36-7.36-13.536 0-26.688 1.312-39.52 3.776 26.72-83.456 104.32-144.192 196.256-145.888-71.904-56.352-162.496-89.92-260.928-89.92-16.96 0-33.664 0.992-50.112 2.944 92.96-59.616 203.392-94.4 322.048-94.4 386.432 0 597.728 320.128 597.728 597.76 0 9.12-0.192 18.176-0.608 27.168 41.056 29.632 76.672 66.624 104.832 108.736z" />
<glyph unicode="&#xe93a;" glyph-name="tumblr" d="M576.032 512v-234.176c0-59.424-0.768-93.664 5.536-110.496 6.24-16.768 21.92-34.144 38.976-44.192 22.688-13.6 48.544-20.384 77.696-20.384 51.84 0 82.464 6.848 133.728 40.544v-153.952c-43.712-20.544-81.856-32.608-117.312-40.928-35.488-8.256-73.856-12.416-115.072-12.416-46.816 0-74.464 5.888-110.4 17.664-35.968 11.872-66.656 28.8-92.032 50.528-25.44 21.92-43.008 45.216-52.864 69.824s-14.72 60.416-14.72 107.232v359.104h-137.44v144.992c40.192 13.056 85.152 31.776 113.792 56.16 28.768 24.448 51.776 53.696 69.12 87.936 17.376 34.144 29.344 77.728 35.872 130.528h165.088v-256h255.968v-192h-255.968z" />
<glyph unicode="&#xe93b;" glyph-name="facebook" d="M398.464-34.304v478.624h-104.8v164.96h104.8v98.976c0 134.56 59.136 214.624 227.232 214.624h139.936v-164.992h-87.456c-65.44 0-69.792-23.040-69.792-66.048l-0.256-82.56h158.464l-18.56-164.96h-139.936v-478.624h-209.568z" />
<glyph unicode="&#xe93c;" glyph-name="pinterest" d="M192 563.456c0-82.752 31.424-156.352 98.752-183.808 11.040-4.48 20.928-0.16 24.128 12.064 2.24 8.448 7.52 29.76 9.824 38.624 3.232 12.064 2.016 16.288-6.912 26.784-19.392 22.88-31.84 52.48-31.84 94.4 0 121.536 91.168 230.4 237.44 230.4 129.472 0 200.608-78.976 200.608-184.384 0-138.72-61.536-255.808-152.864-255.808-50.464 0-88.224 41.632-76.096 92.672 14.464 60.96 42.56 126.72 42.56 170.72 0 39.36-21.216 72.224-65.024 72.224-51.552 0-93.024-53.216-93.024-124.48 0-45.44 15.392-76.16 15.392-76.16l-62.016-262.176c-18.4-77.792-2.752-173.184-1.44-182.784 0.768-5.728 8.128-7.104 11.456-2.784 4.768 6.208 66.144 81.856 87.072 157.44 5.888 21.408 33.888 132.224 33.888 132.224 16.768-31.872 65.728-59.936 117.76-59.936 155.040 0 260.16 140.992 260.16 329.696 0 142.72-121.12 275.616-305.248 275.616-229.056 0-344.576-163.872-344.576-300.544z" />
<glyph unicode="&#xe93d;" glyph-name="linkedin" d="M852 960h-680c-94.592 0-172-77.408-172-172v-680c0-94.592 77.408-172 172-172h680c94.592 0 172 77.408 172 172v680c0 94.592-77.408 172-172 172zM384 128h-128v448h128v-448zM320 640c-35.36 0-64 28.64-64 64s28.64 64 64 64 64-28.64 64-64-28.64-64-64-64zM832 128h-128v256c0 35.36-28.64 64-64 64s-64-28.64-64-64v-256h-128v448h128v-79.456c26.4 36.256 66.752 79.456 112 79.456 79.52 0 144-71.648 144-160v-288z" />
<glyph unicode="&#xe93e;" glyph-name="envelope" d="M928 832h-832c-53.024 0-96-42.976-96-96v-576c0-52.992 42.976-96 96-96h832c53.024 0 96 43.008 96 96v576c0 53.024-42.976 96-96 96zM87.712 128.32l-23.392 23.424 263.968 263.936 23.392-23.424-263.968-263.936zM936.288 128.32l-263.968 263.936 23.392 23.424 263.968-263.936-23.392-23.424zM544 341.6v-21.6h-64v21.6l-415.904 385.6 40.704 40.704 407.2-377.536 407.2 377.536 40.704-40.704-415.904-385.6z" />
<glyph unicode="&#xe93f;" glyph-name="googleplus" d="M0.8 90.336c-0.256 2.528-0.448 5.056-0.576 7.616 0.128-2.56 0.352-5.088 0.576-7.616zM235.904 394.848c92-2.752 153.728 92.704 137.856 213.184s-103.392 217.184-195.392 219.936c-92.032 2.72-153.728-89.472-137.856-209.984 15.872-120.48 103.36-220.384 195.392-223.136zM1024 704v85.312c0 93.888-76.768 170.688-170.656 170.688h-682.656c-92.288 0-168-74.24-170.56-165.92 58.368 51.392 139.328 94.304 222.88 94.304 89.312 0 357.248 0 357.248 0l-79.936-67.616h-113.28c75.136-28.8 115.168-116.128 115.168-205.728 0-75.232-41.824-139.968-100.896-185.984-57.632-44.896-68.576-63.712-68.576-101.888 0-32.576 61.76-88 94.016-110.784 94.368-66.528 124.928-128.32 124.928-231.456 0-16.416-2.048-32.832-6.080-48.96h307.744c93.888 0 170.656 76.736 170.656 170.688v533.312h-192v-192h-64v192h-192v64h192v192h64v-192h192zM185.888 194.048c21.6 0 41.408 0.576 61.952 0.576-27.136 26.336-48.64 58.592-48.64 98.368 0 23.616 7.552 46.336 18.144 66.528-10.784-0.768-21.792-0.992-33.12-0.992-74.368 0-137.504 24.064-184.192 63.84v-268.96c53.44 25.376 116.896 40.608 185.888 40.608zM3.424 72.736c-1.12 5.472-1.952 11.008-2.528 16.64 0.576-5.632 1.44-11.168 2.528-16.64zM455.456 7.168c-15.072 58.816-68.448 87.968-142.88 139.552-27.072 8.736-56.896 13.888-88.896 14.208-89.632 0.96-173.12-34.944-220.224-88.384 15.936-77.696 85.024-136.544 167.232-136.544h286.432c1.824 11.136 2.688 22.624 2.688 34.432 0 12.544-1.536 24.8-4.384 36.736z" />
<glyph unicode="&#xe940;" glyph-name="feed" d="M136.288 209.056c-75.2 0-136.288-61.344-136.288-136.064 0-75.168 61.088-135.808 136.288-135.808 75.456 0 136.48 60.64 136.48 135.808 0 74.752-61.024 136.064-136.48 136.064zM0.16 612.064v-196.256c127.776 0 247.968-49.984 338.464-140.512 90.4-90.304 140.288-211.040 140.288-339.296h197.12c0 372.832-303.296 676.064-675.872 676.064zM0.384 960v-196.352c455.776 0 826.752-371.328 826.752-827.648h196.864c0 564.48-459.264 1024-1023.616 1024z" />
<glyph unicode="&#xe941;" glyph-name="instagram" d="M307.84 953.952c52.16 2.4 68.8 2.976 201.568 2.976s149.44-0.576 201.568-2.976c52.032-2.4 87.584-10.784 118.688-23.008 32.16-12.64 59.424-29.568 86.592-57.12s43.904-55.136 56.384-87.712c12.096-31.488 20.352-67.488 22.72-120.192 2.368-52.8 2.944-69.664 2.944-204.128s-0.576-151.328-2.944-204.128c-2.368-52.704-10.624-88.704-22.72-120.192-12.48-32.544-29.216-60.16-56.384-87.712s-54.432-44.448-86.592-57.12c-31.104-12.224-66.624-20.608-118.688-23.008-52.16-2.4-68.8-2.976-201.568-2.976s-149.44 0.576-201.568 2.976c-52.032 2.4-87.584 10.784-118.688 23.008-32.16 12.64-59.424 29.568-86.592 57.12s-43.904 55.136-56.384 87.712c-12.096 31.488-20.352 67.488-22.72 120.192-2.368 52.8-2.944 69.664-2.944 204.128s0.576 151.328 2.944 204.128c2.368 52.704 10.624 88.704 22.72 120.192 12.48 32.544 29.216 60.16 56.384 87.68s54.432 44.448 86.592 57.12c31.104 12.256 66.624 20.608 118.688 23.008zM258.368 461.824c0-140.416 112.416-254.24 251.072-254.24s251.072 113.824 251.072 254.24c0 140.416-112.416 254.24-251.072 254.24s-251.072-113.824-251.072-254.24zM346.464 461.824c0 91.136 72.96 165.024 162.976 165.024s162.976-73.888 162.976-165.024c0-91.136-72.96-165.024-162.976-165.024s-162.976 73.888-162.976 165.024zM770.4 666.688c32.416 0 58.656 26.592 58.656 59.424s-26.272 59.424-58.656 59.424c-32.416 0-58.656-26.592-58.656-59.424s26.272-59.424 58.656-59.424z" />
<glyph unicode="&#xe942;" glyph-name="snapchat" d="M344.96 850.56c-65.632-53.824-85.28-97.568-85.28-198.496 0-111.040-9.824-124.512-65.568-111.040-85.248 23.552-85.248-43.744 0-90.848 52.416-30.304 59.008-50.464 32.768-100.928-19.648-37.024-75.36-87.488-124.608-114.4-81.92-47.104-85.248-50.464-22.944-74.016 36.032-13.472 75.392-43.744 91.84-67.296 13.12-23.552 45.888-37.024 72.096-23.552 26.24 10.080 85.28-6.72 131.2-37.024 42.592-30.304 111.488-53.824 147.584-53.824 36.032 0 104.896 23.552 147.552 53.824 45.888 30.304 104.928 47.104 131.168 33.664 29.504-10.112 59.008 3.36 68.864 26.912 9.824 26.912 49.184 57.184 88.544 67.296 68.864 20.192 68.864 23.552-16.384 70.656-49.184 30.272-104.928 80.736-124.608 117.76-26.208 50.464-19.648 70.656 32.768 100.928 85.28 47.104 85.28 114.4 0 90.848-55.712-13.472-65.568 0-65.568 111.008 0 235.52-252.48 349.92-439.392 198.528z" />
<glyph unicode="&#xe943;" glyph-name="stumbleupon" d="M852 960h-680c-94.592 0-172-77.408-172-172v-680c0-94.592 77.408-172 172-172h680c94.592 0 172 77.408 172 172v680c0 94.592-77.408 172-172 172zM512 640c-35.296 0-64-28.704-64-64v-256c0-105.856-86.144-192-192-192s-192 86.144-192 192v128h128v-128c0-35.296 28.704-64 64-64s64 28.704 64 64v256c0 105.856 86.144 192 192 192s192-86.144 192-178.016v-62.016l-82.016-24-46.016 24v62.016c0 21.28-28.704 50.016-64 50.016zM960 320c0-105.856-86.144-192-192-192s-192 86.144-192 206.016v124l46.016-24 82.016 24v-124c0-49.28 28.704-78.016 64-78.016s64 28.704 64 64v128h128v-128z" />
<glyph unicode="&#xe944;" glyph-name="apple" d="M791.488 415.904c-1.28 129.696 105.76 191.872 110.528 194.976-60.16 88.032-153.856 100.064-187.232 101.472-79.744 8.064-155.584-46.944-196.064-46.944-40.352 0-102.816 45.76-168.96 44.544-86.912-1.28-167.072-50.528-211.808-128.384-90.304-156.704-23.136-388.832 64.896-515.936 43.008-62.208 94.304-132.064 161.632-129.568 64.832 2.592 89.376 41.952 167.744 41.952s100.416-41.952 169.056-40.672c69.76 1.312 113.984 63.392 156.704 125.792 49.376 72.16 69.728 142.048 70.912 145.632-1.536 0.704-136.064 52.224-137.408 207.136zM662.56 796.48c35.744 43.36 59.872 103.52 53.28 163.52-51.488-2.112-113.888-34.304-150.816-77.536-33.152-38.368-62.144-99.616-54.368-158.432 57.472-4.48 116.128 29.216 151.904 72.448z" />
<glyph unicode="&#xe945;" glyph-name="podcast" d="M1024 448c0 282.784-229.216 512-512 512s-512-229.216-512-512c0-220.064 138.848-407.648 333.696-480.064l-13.696-31.936h384l-13.696 31.936c194.848 72.416 333.696 260 333.696 480.064zM486.784 325.184c-22.816 9.792-38.784 32.448-38.784 58.816 0 35.36 28.64 64 64 64s64-28.64 64-64c0-26.4-15.968-49.056-38.784-58.848l-25.216 58.848-25.216-58.816zM538.272 322.72c58.080 12.128 101.728 63.616 101.728 125.28 0 70.688-57.312 128-128 128s-128-57.312-128-128c0-61.696 43.648-113.12 101.76-125.216l-74.624-174.112c-91.232 39.136-155.136 129.792-155.136 235.36 0 141.376 114.624 268 256 268s256-126.624 256-268c0-105.568-63.904-196.192-155.136-235.36l-74.592 174.048zM688.448-27.712l-73.92 172.48c126.432 42.752 217.472 162.336 217.472 303.232 0 176.736-143.264 320-320 320s-320-143.264-320-320c0-140.864 91.040-260.48 217.472-303.232l-73.92-172.48c-159.584 68.48-271.392 227.040-271.392 411.712 0 247.328 200.512 459.84 447.84 459.84s447.84-212.512 447.84-459.84c0-184.672-111.808-343.232-271.392-411.712z" />
<glyph unicode="&#xe946;" glyph-name="minus" d="M563.2 499.2h460.8v-102.4h-1024v102.4h563.2z" />
<glyph unicode="&#xe947;" glyph-name="list" d="M832 832v-800h-608v800h608zM800 800h-544v-736h544v736zM745.6 307.2v-38.4h-315.574v38.4h315.574zM370.133 307.2v-38.4h-69.197v38.4h69.197zM745.6 467.2v-38.4h-315.574v38.4h315.574zM370.133 467.2v-38.4h-69.197v38.4h69.197zM745.6 611.2v-38.4h-315.574v38.4h315.574zM370.133 611.2v-38.4h-69.197v38.4h69.197z" />
<glyph unicode="&#xe948;" glyph-name="locator" d="M531.187 209.907v99.84h-38.368v-99.84c-116.512 9.344-209.568 102.4-218.88 218.912h99.808v38.368h-99.808c9.312 116.512 102.368 209.568 218.88 218.88v-99.808h38.368v99.808c116.512-9.312 209.6-102.368 218.912-218.88h-99.84v-38.368h99.84c-9.312-116.512-102.4-209.6-218.912-218.912v0zM863.987 467.187h-75.488c-9.472 137.888-119.424 247.84-257.312 257.28v75.52h-38.368v-75.52c-137.888-9.472-247.84-119.392-257.28-257.28h-75.552v-38.368h75.552c9.44-137.888 119.392-247.84 257.28-257.312v-75.52h38.368v75.52c137.888 9.472 247.84 119.424 257.312 257.312h75.488v38.368z" />
<glyph unicode="&#xe949;" glyph-name="map" d="M512 832c132.45 0 240-104.986 240-234.722 0-52.928-14.402-102.768-40.359-149.291l88.359 0.013 96-352h-768l96 352 88.080-0.031c-25.781 46.435-40.080 96.275-40.080 149.31 0 129.735 107.55 234.722 240 234.722zM635.239 349.299c-25.215-25.090-52.182-47.106-79.161-65.917-9.459-6.595-18.258-12.327-26.18-17.177-3.854-2.359-6.865-4.127-8.923-5.291l-1.362-0.76-7.576-4.154-7.593 4.123c-1.182 0.642-2.916 1.621-5.155 2.934l-5.139 3.070c-7.925 4.812-16.727 10.504-26.19 17.059-26.987 18.695-53.963 40.616-79.185 65.645-21.594 21.429-40.654 43.824-56.783 67.154l-83.552 0.016-78.545-288h684.208l-78.545 288-83.93-0.022c-16.044-23.128-34.97-45.365-56.39-66.679zM512 800.103c-115.102 0-208.232-90.91-208.232-202.825 0-83.241 40.053-158.99 107.34-225.762 23.803-23.621 49.354-44.384 74.895-62.077 10.494-7.27 19.339-12.921 25.962-16.893 6.629 4.009 15.485 9.709 25.993 17.036 25.549 17.814 51.108 38.68 74.919 62.373 67.297 66.965 107.355 142.615 107.355 225.323 0 111.915-93.13 202.825-208.232 202.825zM512 686.151c49.933 0 90.589-39.688 90.589-88.873s-40.657-88.873-90.589-88.873c-49.933 0-90.589 39.688-90.589 88.873s40.657 88.873 90.589 88.873zM512 654.254c-32.585 0-58.821-25.611-58.821-56.976s26.237-56.976 58.821-56.976c32.585 0 58.821 25.611 58.821 56.976s-26.237 56.976-58.821 56.976z" />
<glyph unicode="&#xe94a;" glyph-name="star_empty" d="M512 136.896l316.416-200.896-83.712 378.88 279.296 254.72-368.192 33.28-143.808 357.12-143.808-357.12-368.192-33.28 279.296-254.72-83.712-378.88 316.416 200.896zM332.16 331.52l-219.264 200.064 288.832 26.112 110.272 273.792 110.272-273.792 288.832-26.112-219.264-200 64.768-293.12-244.608 155.2-244.608-155.264 64.768 293.12z" />
<glyph unicode="&#xe94b;" glyph-name="star" d="M512 136.896l316.416-200.896-83.712 378.88 279.296 254.72-368.192 33.28-143.808 357.12-143.808-357.12-368.192-33.28 279.296-254.72-83.712-378.88z" />
<glyph unicode="&#xe94c;" glyph-name="star_half" d="M512 831.488v-637.76l244.608-155.328-64.768 293.12 219.264 200.064-288.832 26.112-110.272 273.792zM512 136.96l-316.416-200.96 83.712 378.88-279.296 254.72 368.192 33.28 143.808 357.12 143.808-357.12 368.192-33.28-279.296-254.72 83.712-378.88-316.416 200.896z" />
<glyph unicode="&#xe94d;" glyph-name="logo-wordmark" horiz-adv-x="11025" d="M10899.435 198.174c69.284 0 125.599-56.346 125.599-125.88s-56.315-125.847-125.599-125.847c-69.284 0-125.258 56.312-125.258 125.847s55.973 125.88 125.258 125.88v0zM11002.508 72.294c0 58.367-46.076 105.534-103.073 105.534s-103.073-47.167-103.073-105.534c0-58.334 46.076-105.466 103.073-105.466s103.073 47.132 103.073 105.466v0zM10849.605 145.219h56.656c32.424 0 50.171-13.907 50.171-43.056 0-26.17-17.406-38.364-39.591-40.727l41.639-63.403h-22.185l-40.615 61.69h-23.891v-61.69h-22.185v147.186zM10895.68 80.103c20.478 0 38.226 0.993 38.226 23.086 0 19.285-16.041 21.683-31.741 21.683h-30.376v-44.769h23.891zM-0.033 781.712h282.598v-830.401h165.19v830.401h282.939v163.045h-730.727v-163.045zM1480.192 551.085h-426.286v393.672h-165.531v-993.446h165.531v433.954h426.286v-433.954h165.19v993.446h-165.19v-393.672zM2048.459 400.577h278.502v161.641h-278.502v220.865h479.529v161.675h-644.719v-993.446h665.538v161.641h-500.348v287.625zM3767.937 489.155c71.332 42.406 108.534 108.514 108.534 192.537 0 164.69-107.851 263.065-288.4 263.065h-408.879v-993.446h395.227c220.822 0 342.326 109.747 342.326 308.93 0 126.977-75.769 200.313-148.808 228.914v0zM3585.341 104.56h-249.15v302.97h253.246c103.073 0 162.118-55.182 162.118-151.468 0-101.903-54.267-151.502-166.214-151.502v0zM3586.706 559.408h-250.515v232.032h250.515c103.073 0 124.575-64.191 124.575-118.071 0-26.718-8.874-113.961-124.575-113.961v0zM4486.036 960c-253.587 0-424.238-206.273-424.238-513.353 0-305.436 169.627-510.647 421.508-510.647 254.611 0 425.603 206.341 425.603 513.422 0 305.436-169.968 510.578-422.873 510.578v0zM4481.94 795.585c154.951 0 259.048-140.267 259.048-348.938 0-210.315-99.319-346.197-253.587-346.197-153.927 0-257.683 140.233-257.683 348.972 0 210.315 98.977 346.163 252.222 346.163v0zM5375.468 944.757h-274.748v-993.446h274.748c112.971 0 482.259 35.829 482.259 496.74 0 310.985-180.207 496.706-482.259 496.706v0zM5266.251 783.082h109.217c259.731 0 314.339-182.193 314.339-335.031 0-152.906-54.608-335.1-314.339-335.1h-109.217v670.13zM6418.827 669.807c-30.035-54.188-69.967-130.539-91.128-173.835-21.502 44.255-62.117 122.935-91.469 175.308l-153.927 273.478h-193.518l355.636-600.973v-392.473h165.19v392.473l355.295 600.973h-190.788l-155.292-274.951zM7549.9 543.755c-176.453 52.681-204.781 85.051-204.781 142.117 0 69.603 56.997 111.152 152.221 111.152 90.445 0 158.023-27.848 218.774-90.257l7.167-7.159 116.384 118.551-6.826 6.953c-94.882 92.038-197.955 134.889-324.578 134.889-194.201 0-329.697-115.57-329.697-281.082 0-189.66 117.066-238.368 310.584-296.017 162.46-48.777 211.948-84.228 211.948-151.879 0-32.609 0-131.978-191.129-131.978-87.715 0-181.572 42.988-245.055 112.248l-6.826 7.467-117.749-115.091 5.802-7.022c88.397-103.616 213.655-160.648 352.565-160.648 320.824 0 368.947 190.928 368.947 304.785 0 190.482-144.029 249.843-317.752 302.97v0zM8647.185 551.085h-426.627v393.672h-165.19v-993.446h165.19v433.954h426.627v-433.954h165.19v993.446h-165.19v-393.672zM9428.425 960c-253.928 0-424.238-206.273-424.238-513.353 0-305.436 169.286-510.647 421.508-510.647 254.27 0 425.603 206.341 425.603 513.422 0 305.436-169.968 510.578-422.873 510.578v0zM9424.329 795.585c154.61 0 258.707-140.267 258.707-348.938 0-210.315-99.319-346.197-253.246-346.197-154.268 0-257.683 140.233-257.683 348.972 0 210.315 98.977 346.163 252.222 346.163v0zM10458.814 944.757h-415.705v-993.446h162.46v363.050h243.689c204.44 0 331.404 121.017 331.404 315.849 0 194.010-123.21 314.548-321.847 314.548v0zM10456.084 471.823h-250.515v315.438h250.515c97.954 0 156.657-58.71 156.657-157.051 0-102.143-55.632-158.387-156.657-158.387v0z" />
<glyph unicode="&#xe94e;" glyph-name="clock" horiz-adv-x="1055" d="M564.027 441.139c0.082-0.080 0.164-0.162 0.246-0.243l127.673-127.673c11.133-11.133 11.133-29.184 0-40.318s-29.184-11.133-40.318 0l-127.673 127.673c-1.306 1.306-2.458 2.707-3.458 4.18-8.097 5.029-13.489 14.003-13.489 24.236v275.588c0 15.745 12.764 28.509 28.509 28.509s28.509-12.764 28.509-28.509v-263.443zM540.27-62.788c-282.1 0-510.788 228.688-510.788 510.788s228.688 510.788 510.788 510.788c282.1 0 510.788-228.688 510.788-510.788s-228.688-510.788-510.788-510.788zM540.27 8.485c242.738 0 439.515 196.778 439.515 439.515s-196.778 439.515-439.515 439.515c-242.738 0-439.515-196.778-439.515-439.515s196.778-439.515 439.515-439.515z" />
<glyph unicode="&#xe94f;" glyph-name="youtube" d="M832 832h-640c-105.6 0-192-86.4-192-192v-384c0-105.6 86.4-192 192-192h640c105.6 0 192 86.4 192 192v384c0 105.6-86.4 192-192 192zM384 192v512l320-256-320-256z" />
<glyph unicode="&#xe950;" glyph-name="print" horiz-adv-x="1161" d="M955.733 140.8v-204.8h-750.933v204.8h750.933zM136.533 550.4v-68.267h887.467v68.267h136.533v-477.867h-136.533v136.533h-887.467v-136.533h-136.533v477.867h136.533zM273.067 413.867h-136.533v-136.533h136.533v136.533zM955.733 960v-409.6h-750.933v409.6h750.933zM887.467 686.933h-614.4v-68.267h614.4v68.267zM887.467 823.467h-614.4v-68.267h614.4v68.267z" />
<glyph unicode="&#xe951;" glyph-name="call" d="M1023.968 193.34v-154.153c0.118-28.937-11.994-56.582-33.359-76.145s-50.004-29.229-78.881-26.624c-158.432 17.181-310.617 71.211-444.328 157.75-124.4 78.892-229.869 184.153-308.918 308.306-87.013 134.051-141.163 286.674-158.063 445.503-2.601 28.73 7.016 57.229 26.503 78.535s47.050 33.456 75.954 33.488h154.459c51.685 0.503 95.739-37.308 102.973-88.386 6.519-49.332 18.61-97.77 36.040-144.39 14.145-37.556 5.098-79.893-23.169-108.421l-65.388-65.258c73.294-128.643 180.020-235.158 308.918-308.306l65.388 65.258c28.585 28.211 71.006 37.24 108.636 23.123 46.712-17.396 95.246-29.463 144.677-35.969 51.773-7.289 89.854-52.145 88.557-104.31v0z" />
<glyph unicode="&#xe999;" glyph-name="edit" d="M480.198 704v-32h-191.192v-448.146h446.995v191.498h32v-223.498h-510.995v512.146h223.192zM767.702 704v-192h-31.751l-0.016 137.216-148.509-149.563-22.627 22.627 148.736 149.783-137.834-0.028v31.964h192z" />
</font>
</defs>
</svg>
