<?xml version="1.0" encoding="UTF-8"?>
<svg width="56px" height="42px" viewBox="0 0 56 42" version="1.1" xmlns="http://www.w3.org/2000/svg" xmlns:xlink="http://www.w3.org/1999/xlink">
    <!-- Generator: Sketch 57 (83077) - https://sketch.com -->
    <title>Icon-post_office@1x</title>
    <desc>Created with Sketch.</desc>
    <g id="TBS-pages" stroke="none" stroke-width="1" fill="none" fill-rule="evenodd">
        <g id="Checkout---delivery-variations" transform="translate(-182.000000, -11733.000000)" fill="#E51636" fill-rule="nonzero">
            <g id="Group-9" transform="translate(0.000000, 6154.000000)">
                <g id="Group-10" transform="translate(105.000000, 3762.000000)">
                    <g id="Group-8-Copy" transform="translate(0.000000, 1740.000000)">
                        <g id="List">
                            <g id="Cards">
                                <g id="Group" transform="translate(40.000000, 39.000000)">
                                    <g id="Group-8" transform="translate(19.000000, 21.000000)">
                                        <g id="logos/postoffice" transform="translate(19.000000, 17.000000)">
                                            <path d="M27.3632584,3.55271368e-14 C42.6265336,2.84217094e-14 54.9999991,9.19975691 54.9999991,20.5514364 C54.9999991,31.903116 42.6265336,41.1034483 27.3632584,41.1034483 C12.1005632,41.1034483 -0.27638191,31.903116 -0.27638191,20.5514364 C-0.27638191,9.19975691 12.1005632,3.55271368e-14 27.3632584,3.55271368e-14 Z M37.4742866,20.6388367 C34.8802431,20.642289 32.8527949,22.6279267 32.846987,25.264895 C32.8423561,27.8345438 34.723661,29.8886517 37.4742866,29.8886517 C38.4210767,29.8886517 39.2859995,29.718467 40.0038372,29.2650842 L40.1959154,29.1343281 L40.1959154,27.8771219 C39.333554,28.4622838 38.6498122,28.6751745 37.4742866,28.6751745 C35.5848626,28.6751745 34.233617,27.2430527 34.2185387,25.264895 C34.2052003,23.2389807 35.4926531,21.8632462 37.4742866,21.8528893 C38.6867346,21.8491302 39.4955385,22.1736703 40.0751561,22.5668776 L40.1959154,22.6520927 L40.1959154,21.3977635 C39.4344625,20.8407952 38.5071485,20.6388367 37.4742866,20.6388367 Z M10.2437895,20.6388367 C7.60683091,20.6388367 5.6193981,22.6279267 5.6193981,25.264895 C5.6193981,27.8995618 7.60683091,29.8886517 10.2437895,29.8886517 C12.8795881,29.8886517 14.8687607,27.8995618 14.8687607,25.264895 C14.8687607,22.6279267 12.8795881,20.6388367 10.2437895,20.6388367 Z M47.4629487,20.8632926 L41.6943481,20.8632926 L41.6943481,29.6700647 L47.6827436,29.6700647 L47.6827436,28.4548614 L42.9887602,28.4548614 L42.9887602,25.7730134 L47.0732332,25.7730134 L47.0732332,24.5583854 L42.9887602,24.5583854 L42.9887602,22.0756191 L47.4629487,22.0756191 L47.4629487,20.8632926 Z M21.6922607,20.8632926 L16.1486744,20.8632926 L16.1486744,29.6700647 L17.4465661,29.6700647 L17.4465661,25.9099539 L21.2381726,25.9099539 L21.2381726,24.6947506 L17.4465661,24.6947506 L17.4465661,22.0756191 L21.6922607,22.0756191 L21.6922607,20.8632926 Z M28.6163792,20.8632926 L23.0710531,20.8632926 L23.0710531,29.6700647 L24.3695247,29.6700647 L24.3695247,25.9099539 L28.1588115,25.9099539 L28.1588115,24.6947506 L24.3695247,24.6947506 L24.3695247,22.0756191 L28.6163792,22.0756191 L28.6163792,20.8632926 Z M31.355928,20.8628898 L30.0591962,20.8628898 L30.0591962,29.669662 L31.355928,29.669662 L31.355928,20.8628898 Z M10.2437895,21.8528893 C12.1291539,21.8528893 13.4925781,23.2873126 13.4925781,25.264895 C13.4925781,27.2430527 12.1291539,28.6751745 10.2437895,28.6751745 C8.35958486,28.6751745 6.99152125,27.2430527 6.99152125,25.264895 C6.99152125,23.2873126 8.35958486,21.8528893 10.2437895,21.8528893 Z M24.8384011,9.13237987 C22.2043422,9.13237987 20.2140097,11.1203191 20.2140097,13.7561366 C20.2140097,16.3942557 22.2043422,18.3821949 24.8384011,18.3821949 C27.4736198,18.3821949 29.4616325,16.3942557 29.4616325,13.7561366 C29.4616325,11.1203191 27.4736198,9.13237987 24.8384011,9.13237987 Z M33.3986865,9.13157318 C31.1931986,9.1327251 30.3731723,10.6569077 30.3731723,11.6166422 C30.3731723,13.5746616 31.7638534,13.9826063 32.9944727,14.3692619 C33.9038087,14.6569521 34.7702297,14.9567253 34.7702297,15.7893007 C34.7702297,16.6644543 33.8144989,17.1069218 32.9944727,17.1190048 C32.2167333,17.129026 31.3600504,16.7904586 30.7000358,16.3652275 L30.525115,16.2473035 L30.5274347,17.5355802 L30.696436,17.6656425 C31.3349279,18.1250174 32.1730932,18.3893488 32.9683757,18.3819647 C34.7916872,18.3647033 36.1214752,17.2381085 36.1214752,15.6345234 C36.1214752,13.8916962 34.7464524,13.5211513 33.5831054,13.1684431 C32.5954783,12.8680945 31.7052801,12.5809797 31.7052801,11.6166422 C31.7052801,11.1448303 32.0949955,10.3444762 33.3986865,10.3444762 C34.018591,10.3444762 34.4872872,10.4283115 35.2335407,10.8629879 L35.4261347,10.9791207 L35.5142846,11.0395357 L35.5177642,9.74780672 L35.3525649,9.63266448 C34.8368409,9.30437831 34.1445392,9.13105638 33.3986865,9.13157318 Z M43.5475843,9.35315332 L36.6063578,9.35315332 L36.6063578,10.5677813 L39.4288951,10.5677813 L39.4288951,18.1587747 L40.7250469,18.1587747 L40.7250469,10.5677813 L43.5475843,10.5677813 L43.5475843,9.35315332 Z M16.6767621,9.35315332 L13.5393207,9.35315332 L13.5393207,18.1587747 L14.8383722,18.1587747 L14.8383722,14.5885394 L16.6767621,14.5885394 L16.911947,14.58311 C19.1948818,14.4755855 19.5097113,12.7994228 19.5405034,12.0979437 L19.5427446,12.028958 L19.5427446,11.9100131 C19.5286428,11.2375859 19.2568695,9.35315332 16.6767621,9.35315332 Z M24.8384011,10.3447063 C26.7226057,10.3447063 28.0906693,11.7785542 28.0906693,13.7561366 C28.0906693,15.733719 26.7226057,17.1681423 24.8384011,17.1681423 C22.9553563,17.1681423 21.584973,15.733719 21.584973,13.7561366 C21.584973,11.7785542 22.9553563,10.3447063 24.8384011,10.3447063 Z M14.8383722,10.4912557 L16.4726254,10.4912557 C17.1552074,10.4912557 18.2976768,10.6840081 18.2976768,11.9694079 C18.2976768,13.1983704 17.2523929,13.4271064 16.5641342,13.4446733 L16.4726254,13.445834 L14.8383722,13.445834 L14.8383722,10.4912557 L16.4726254,10.4912557 Z M52.3770237,0.275862069 C52.9568954,0.275862069 53.4460147,0.476103207 53.846739,0.878321678 C54.2474633,1.27880395 54.4472362,1.76956836 54.4472362,2.34424885 C54.4472362,2.91661442 54.2474633,3.4050639 53.8443818,3.81017603 C53.4436575,4.2123945 52.9533595,4.4137931 52.3770237,4.4137931 C51.7977414,4.4137931 51.308622,4.2123945 50.9061298,3.80728237 C50.5030483,3.40274898 50.3015075,2.91545696 50.3015075,2.34424885 C50.3015075,1.76956836 50.5030483,1.28111888 50.9061298,0.879479142 C51.308622,0.476103207 51.7977414,0.275862069 52.3770237,0.275862069 Z M52.3770237,0.624837232 C51.9014583,0.624837232 51.4977874,0.794405594 51.1648327,1.12486135 C50.8348244,1.45763202 50.6674631,1.86621654 50.6609808,2.34424885 C50.6674631,2.8211237 50.8348244,3.22507837 51.1648327,3.55958524 C51.4977874,3.89582831 51.9014583,4.06366048 52.3770237,4.06366048 C52.8543571,4.06366048 53.2597958,3.89582831 53.595697,3.55958524 C53.9274732,3.22507837 54.091888,2.8211237 54.0871736,2.34424885 C54.091888,1.86737401 53.9274732,1.46110441 53.595697,1.12659754 C53.2597958,0.794405594 52.8543571,0.624837232 52.3770237,0.624837232 Z M52.2355916,1.35172414 C52.7683192,1.35172414 53.0340937,1.54617796 53.0340937,1.93855799 C53.0340937,2.18567639 52.9256624,2.35813841 52.7152822,2.45825898 L53.25626,3.34950567 L52.8396246,3.34950567 L52.3593447,2.54333253 C52.3375406,2.54680492 52.3021826,2.54911985 52.2550385,2.54911985 C52.2031801,2.54911985 52.156036,2.54680492 52.1141957,2.54333253 L52.1141957,3.34950567 L51.7517759,3.34950567 L51.7517759,1.35172414 L52.2355916,1.35172414 Z M52.2456097,1.67176272 L52.1141957,1.67176272 L52.1141957,2.22445141 C52.161929,2.2279238 52.2131982,2.2279238 52.269771,2.2279238 C52.5367241,2.2279238 52.6704953,2.13474801 52.6704953,1.94666024 C52.6704953,1.76378105 52.5290632,1.67176272 52.2456097,1.67176272 Z"></path>
                                        </g>
                                    </g>
                                </g>
                            </g>
                        </g>
                    </g>
                </g>
            </g>
        </g>
    </g>
</svg>