<?xml version="1.0" encoding="UTF-8"?>
<svg width="40px" height="40px" viewBox="0 0 40 40" version="1.1" xmlns="http://www.w3.org/2000/svg" xmlns:xlink="http://www.w3.org/1999/xlink">
    <!-- Generator: Sketch 57 (83077) - https://sketch.com -->
    <title>masthead/thblogo@1x</title>
    <desc>Created with Sketch.</desc>
    <g id="Symbols" stroke="none" stroke-width="1" fill="none" fill-rule="evenodd">
        <g id="checkout/mobile/list/card" transform="translate(-20.000000, -20.000000)" fill="#004236">
            <g id="checkout/dekstop/list/card">
                <g id="masthead/thblogo" transform="translate(20.000000, 20.000000)">
                    <g id="Bodyshop">
                        <path d="M36.8226898,35.0775695 C37.9213599,35.0775695 38.808458,35.9652206 38.808458,37.0618999 C38.808458,38.1588005 37.9213599,39.0470046 36.8226898,39.0470046 C35.7265634,39.0470046 34.8388017,38.1588005 34.8388017,37.0618999 C34.8388017,35.9652206 35.7265634,35.0775695 36.8226898,35.0775695 Z M38.4566491,37.0618999 C38.4566491,36.1421757 37.7283682,35.3996278 36.8226898,35.3996278 C35.9180068,35.3996278 35.1911636,36.1421757 35.1911636,37.0618999 C35.1911636,37.9809606 35.9180068,38.7254992 36.8226898,38.7254992 C37.7283682,38.7254992 38.4566491,37.9809606 38.4566491,37.0618999 Z M36.031811,35.9124659 L36.9304112,35.9124659 C37.4444658,35.9124659 37.7226172,36.1312266 37.7226172,36.5907569 C37.7226172,37.0038365 37.4504381,37.1952799 37.0971914,37.2328828 L37.7605519,38.2325686 L37.4076371,38.2325686 L36.7656218,37.2603109 L36.3850577,37.2603109 L36.3850577,38.2325686 L36.031811,38.2325686 L36.031811,35.9124659 Z M36.7656218,36.9395797 C37.0859105,36.9395797 37.3693705,36.9239855 37.3693705,36.5750522 C37.3693705,36.2700258 37.1124538,36.232644 36.8667074,36.232644 L36.3850577,36.232644 L36.3850577,36.9395797 L36.7656218,36.9395797 Z M13.3718457,5.9181754 C14.1779868,5.9181754 14.7411465,6.46585149 14.7411465,7.24954146 C14.7411465,7.85439617 14.3415597,8.42773075 13.7228804,8.71030595 C11.7968345,9.60149616 10.3438118,10.5092759 9.15113433,11.5654768 C7.1989876,13.2624763 5.78423144,15.3516527 4.82635127,17.9552154 C4.65182929,18.4647356 4.50429296,18.9712696 4.36084872,19.4612141 L4.24118282,19.8731877 C4.23211387,19.9383293 4.16918421,19.9957291 4.10713932,19.9957291 C4.03359235,19.9957291 4.0064961,19.9061456 4.0064961,19.8498518 C4.0064961,14.8265384 6.68614955,9.89424628 10.9990987,6.97880014 C11.3386314,6.7517446 11.7434162,6.48996163 12.1741913,6.2696525 C12.5829576,6.04326055 13.0080923,5.9181754 13.3718457,5.9181754 Z M26.3490593,5.9181754 C26.7036331,5.9181754 27.1309797,6.04359234 27.5532389,6.27086907 C27.9569177,6.47934432 28.3506428,6.73404909 28.7157234,6.97802596 C33.0272348,9.88827405 35.7053399,14.8202343 35.7053399,19.8498518 C35.7053399,19.9187536 35.666631,19.9957291 35.6114431,19.9957291 C35.5382279,19.9957291 35.4802751,19.9321359 35.4697684,19.862128 L35.3895856,19.5807694 C35.2390632,19.0518948 35.0834533,18.5049929 34.8916781,17.9530035 C33.9323602,15.3507679 32.5155027,13.2618128 30.5614758,11.5663615 C29.3732222,10.5085017 27.9238492,9.60083258 25.9983564,8.70986357 C25.375032,8.43171224 24.9725697,7.85859886 24.9725697,7.24954146 C24.9725697,6.46585149 25.5382731,5.9181754 26.3490593,5.9181754 Z M14.7848986,0.0119555301 C15.2522813,0.0119555301 15.6345044,0.151639475 15.8900939,0.414860212 C16.1196932,0.65662514 16.241018,0.969835697 16.241018,1.32075981 C16.241018,1.74091762 16.0685974,2.13066126 15.7692115,2.38857335 C15.417845,2.68541555 14.7373419,2.97451598 14.1912142,3.20699076 L14.169869,3.21605971 C12.9176903,3.72325731 11.9967496,4.14031841 10.7154839,4.88905974 C5.38460043,8.11804824 2.20184146,13.734493 2.20184146,19.9132127 C2.20184146,29.673504 10.1226843,37.6140331 19.8593078,37.6140331 C29.5890743,37.6140331 37.5047191,29.673504 37.5047191,19.9132127 C37.5047191,13.7268619 34.3235084,8.11019585 28.9938415,4.88883855 C27.7060507,4.13080707 26.78699,3.71628971 25.5432167,3.21672329 L25.4730983,3.18675152 C24.9421223,2.95969599 24.2803102,2.67689959 23.9477452,2.38967932 C23.6559904,2.1328732 23.4888784,1.74301896 23.4888784,1.32075981 C23.4888784,0.949928246 23.6050052,0.64501246 23.8361528,0.413643645 C24.0752634,0.154846787 24.4631269,0.0119555301 24.9284083,0.0119555301 C25.5424426,0.0119555301 26.3118655,0.217555256 27.2806948,0.64069918 C34.9447315,3.83805695 39.7059301,10.9180312 39.7059301,19.1169147 C39.7059301,30.057386 30.802544,38.9578966 19.8593078,38.9578966 C8.91419143,38.9578966 0.00958875539,30.057386 0.00958875539,19.1169147 C0.00958875539,10.9209067 4.76934961,3.84137485 12.4336075,0.640146195 C13.3912665,0.223416895 14.1826982,0.0119555301 14.7848986,0.0119555301 Z" id="Combined-Shape"></path>
                    </g>
                </g>
            </g>
        </g>
    </g>
</svg>