<?xml version="1.0" encoding="UTF-8"?>
<svg width="43px" height="54px" viewBox="0 0 43 54" version="1.1" xmlns="http://www.w3.org/2000/svg" xmlns:xlink="http://www.w3.org/1999/xlink">
    <!-- Generator: Sketch 57 (83077) - https://sketch.com -->
    <title>icons/checkout/beacon/secondary_inactive_YOU@1x</title>
    <desc>Created with Sketch.</desc>
    <g id="icons/checkout/beacon/secondary_inactive_YOU" stroke="none" stroke-width="1" fill="none" fill-rule="evenodd">
        <path d="M22.507564,45.7259381 C22.6386831,45.6547885 22.8720829,45.5212594 23.1932513,45.3267002 C23.7213705,45.0067731 24.3079704,44.6286222 24.9385542,44.1935264 C26.7371209,42.9525354 28.5349685,41.5001023 30.2159408,39.8448491 C35.0676449,35.0673766 38,29.5872964 38,23.4851208 C38,14.926188 30.8299833,8 22,8 C13.1700159,8 6,14.926188 6,23.4851208 C6,29.6221247 8.9326803,35.1106606 13.7850822,39.8758375 C15.4665594,41.527089 17.2649535,42.9732272 19.0640868,44.2065865 C19.6948929,44.6390228 20.2817146,45.0145388 20.8100551,45.3319747 C21.1314126,45.5250517 21.3649992,45.6574794 21.4963036,45.7280269 L22.002505,46 L22.507564,45.7259381 Z" id="Combined-Shape" fill="#D6CE4B"></path>
        <path d="M22,8 C30.8299833,8 38,14.926188 38,23.4851208 C38,29.5872964 35.0676449,35.0673766 30.2159408,39.8448491 C28.5349685,41.5001023 26.7371209,42.9525354 24.9385542,44.1935264 C24.3079704,44.6286222 23.7213705,45.0067731 23.1932513,45.3267002 C22.8720829,45.5212594 22.6386831,45.6547885 22.507564,45.7259381 L22.507564,45.7259381 L22.002505,46 L22,45.999 Z" id="Combined-Shape" fill-opacity="0.1" fill="#66703A"></path>
        <text id="Store" font-family="WorkSans-Regular_SemiBold, Work Sans" font-size="10" font-weight="500" line-spacing="12" fill="#004236">
            <tspan x="11.6205969" y="28">YOU</tspan>
        </text>
    </g>
</svg>