<?xml version="1.0" encoding="UTF-8"?>
<svg width="43px" height="54px" viewBox="0 0 43 54" version="1.1" xmlns="http://www.w3.org/2000/svg" xmlns:xlink="http://www.w3.org/1999/xlink">
    <!-- Generator: Sketch 57 (83077) - https://sketch.com -->
    <title>icons/checkout/beacon/primary@1x</title>
    <desc>Created with Sketch.</desc>
    <g id="icons/checkout/beacon/primary" stroke="none" stroke-width="1" fill="none" fill-rule="evenodd">
        <g>
            <path d="M21.5,7.03437308e-13 C33.3741221,7.03437308e-13 43,9.62587788 43,21.5 C43,31.5131233 36.1549526,39.9275002 26.8889204,42.3190682 L21.7192195,53.1721682 L16.608167,42.4410293 C7.09090232,40.2265485 0,31.6913587 0,21.5 C0,9.62587788 9.62587788,7.03437308e-13 21.5,7.03437308e-13 Z" id="Combined-Shape" fill="#004236"></path>
            <g id="masthead/thblogo" transform="translate(8.000000, 9.000000)" fill="#FFFFFF">
                <g id="Bodyshop">
                    <path d="M24.8553156,23.6773594 C25.5969179,23.6773594 26.1957091,24.2765239 26.1957091,25.0167825 C26.1957091,25.7571903 25.5969179,26.3567281 24.8553156,26.3567281 C24.1154303,26.3567281 23.5161912,25.7571903 23.5161912,25.0167825 C23.5161912,24.2765239 24.1154303,23.6773594 24.8553156,23.6773594 Z M25.9582381,25.0167825 C25.9582381,24.3959686 25.4666485,23.8947488 24.8553156,23.8947488 C24.2446546,23.8947488 23.7540354,24.3959686 23.7540354,25.0167825 C23.7540354,25.6371484 24.2446546,26.139712 24.8553156,26.139712 C25.4666485,26.139712 25.9582381,25.6371484 25.9582381,25.0167825 Z M24.3214724,24.2409145 L24.9280276,24.2409145 C25.2750144,24.2409145 25.4627666,24.388578 25.4627666,24.6987609 C25.4627666,24.9775897 25.2790457,25.1068139 25.0406042,25.1321959 L25.4883725,25.8069838 L25.250155,25.8069838 L24.8167947,25.1507098 L24.5599139,25.1507098 L24.5599139,25.8069838 L24.3214724,25.8069838 L24.3214724,24.2409145 Z M24.8167947,24.9342163 C25.0329896,24.9342163 25.2243251,24.9236902 25.2243251,24.6881602 C25.2243251,24.4822674 25.0509063,24.4570347 24.8850275,24.4570347 L24.5599139,24.4570347 L24.5599139,24.9342163 L24.8167947,24.9342163 Z M9.02599582,3.9947684 C9.5701411,3.9947684 9.95027387,4.36444976 9.95027387,4.89344049 C9.95027387,5.30171742 9.68055279,5.68871826 9.26294425,5.87945652 C7.9628633,6.48100991 6.98207298,7.09376124 6.17701567,7.80669682 C4.85931663,8.95217153 3.90435622,10.3623656 3.25778711,12.1197704 C3.13998477,12.4636965 3.04039775,12.805607 2.94357289,13.1363195 L2.8627984,13.4144017 C2.85667686,13.4583723 2.81419934,13.4971172 2.77231904,13.4971172 C2.72267484,13.4971172 2.70438487,13.4366483 2.70438487,13.3986499 C2.70438487,10.0079134 4.51315095,6.67861624 7.42439164,4.71069009 C7.65357617,4.55742761 7.92680593,4.3807241 8.21757913,4.23201544 C8.4934964,4.07920087 8.7804623,3.9947684 9.02599582,3.9947684 Z M17.785615,3.9947684 C18.0249523,3.9947684 18.3134113,4.07942483 18.5984362,4.23283662 C18.8709195,4.37355741 19.1366839,4.54548314 19.3831133,4.71016752 C22.2933835,6.67458498 24.1011044,10.0036582 24.1011044,13.3986499 C24.1011044,13.4451587 24.0749759,13.4971172 24.0377241,13.4971172 C23.9883038,13.4971172 23.9491857,13.4541917 23.9420937,13.4069364 L23.8879703,13.2170193 C23.7863676,12.860029 23.6813309,12.4908702 23.5518827,12.1182774 C22.9043431,10.3617683 21.9479643,8.95172361 20.6289962,7.80729404 C19.826925,7.09323867 18.8485982,6.48056199 17.5488905,5.87915791 C17.1281466,5.69140576 16.8564845,5.30455423 16.8564845,4.89344049 C16.8564845,4.36444976 17.2383343,3.9947684 17.785615,3.9947684 Z M9.97980657,0.0080699828 C10.2952899,0.0080699828 10.5532905,0.102356646 10.7258134,0.280030643 C10.8807929,0.44322197 10.9626872,0.654639095 10.9626872,0.891512874 C10.9626872,1.17511939 10.8463032,1.43819635 10.6442177,1.61228701 C10.4070453,1.8126555 9.94770581,2.00779828 9.57906959,2.16471876 L9.56466157,2.1708403 C8.71944099,2.51319869 8.09780595,2.79471492 7.23295165,3.30011533 C3.63460529,5.47968256 1.48624298,9.27078281 1.48624298,13.4414186 C1.48624298,20.0296152 6.83281189,25.3894723 13.4050328,25.3894723 C19.9726251,25.3894723 25.3156854,20.0296152 25.3156854,13.4414186 C25.3156854,9.26563175 23.1683682,5.4743822 19.570843,3.29996602 C18.7015842,2.78829477 18.0812183,2.50849555 17.2416713,2.17128822 L17.1943413,2.15105728 C16.8359326,1.99779479 16.3892094,1.80690722 16.164728,1.61303354 C15.9677935,1.43968941 15.8549929,1.1765378 15.8549929,0.891512874 C15.8549929,0.641201566 15.9333785,0.435383411 16.0894032,0.279209461 C16.2508028,0.104521581 16.5126107,0.0080699828 16.8266756,0.0080699828 C17.2411487,0.0080699828 17.7605092,0.146849798 18.414469,0.432471946 C23.5876938,2.59068844 26.8015028,7.36967104 26.8015028,12.9039174 C26.8015028,20.2887356 20.7917172,26.2965802 13.4050328,26.2965802 C6.01707921,26.2965802 0.00647240989,20.2887356 0.00647240989,12.9039174 C0.00647240989,7.37161202 3.21931098,2.59292803 8.39268507,0.432098681 C9.03910487,0.150806404 9.57332131,0.0080699828 9.97980657,0.0080699828 Z" id="Combined-Shape"></path>
                </g>
            </g>
        </g>
    </g>
</svg>