<?xml version="1.0" encoding="UTF-8"?>
<svg width="43px" height="54px" viewBox="0 0 43 54" version="1.1" xmlns="http://www.w3.org/2000/svg" xmlns:xlink="http://www.w3.org/1999/xlink">
    <!-- Generator: Sketch 57 (83077) - https://sketch.com -->
    <title>icons/checkout/beacon/primary_inactive@1x</title>
    <desc>Created with Sketch.</desc>
    <g id="icons/checkout/beacon/primary_inactive" stroke="none" stroke-width="1" fill="none" fill-rule="evenodd">
        <g id="icons/checkout/beacon/primary" transform="translate(4.000000, 5.000000)">
            <path d="M17,0 C26.3888407,0 34,7.78438727 34,17.3869156 C34,25.4846799 28.5873508,32.2894796 21.2604258,34.2233192 L17.1733363,43 L13.1325085,34.3219068 C5.60699318,32.5312454 0,25.6287751 0,17.3869156 C0,7.78438727 7.61115925,0 17,0 Z" id="Combined-Shape" fill="#3A857E"></path>
            <g id="masthead/thblogo" transform="translate(5.000000, 6.000000)" fill="#FFFFFF">
                <g id="Bodyshop">
                    <path d="M22.0936148,21.0465425 C22.7528168,21.0465425 23.2850757,21.5791332 23.2850757,22.2371408 C23.2850757,22.8952812 22.7528168,23.4282037 22.0936148,23.4282037 C21.4359389,23.4282037 20.9032819,22.8952812 20.9032819,22.2371408 C20.9032819,21.5791332 21.4359389,21.0465425 22.0936148,21.0465425 Z M23.0739904,22.2371408 C23.0739904,21.6853063 22.6370218,21.2397775 22.0936148,21.2397775 C21.5508049,21.2397775 21.114699,21.6853063 21.114699,22.2371408 C21.114699,22.7885772 21.5508049,23.2353005 22.0936148,23.2353005 C22.6370218,23.2353005 23.0739904,22.7885772 23.0739904,22.2371408 Z M21.6190875,21.5474804 L22.1582476,21.5474804 C22.4666804,21.5474804 22.6335712,21.6787368 22.6335712,21.954455 C22.6335712,22.2023028 22.4702637,22.3171688 22.2583157,22.3397306 L22.656332,22.9395421 L22.4445831,22.9395421 L22.0593739,22.3561874 L21.8310355,22.3561874 L21.8310355,22.9395421 L21.6190875,22.9395421 L21.6190875,21.5474804 Z M22.0593739,22.1637487 C22.2515472,22.1637487 22.4216232,22.1543922 22.4216232,21.9450322 C22.4216232,21.7620163 22.2674732,21.7395873 22.1200253,21.7395873 L21.8310355,21.7395873 L21.8310355,22.1637487 L22.0593739,22.1637487 Z M8.02310771,3.55090538 C8.50679242,3.55090538 8.84468823,3.87951105 8.84468823,4.34972505 C8.84468823,4.71263789 8.60493616,5.05663865 8.23372855,5.22618378 C7.07810099,5.76089793 6.20628734,6.3055658 5.49068082,6.93928633 C4.31939273,7.95748612 3.470539,9.21099197 2.89581088,10.7731297 C2.79109768,11.0788418 2.70257588,11.3827622 2.61650934,11.6767289 L2.54470979,11.9239131 C2.53926842,11.9629981 2.50151062,11.997438 2.46428369,11.997438 C2.42015551,11.997438 2.40389775,11.9436878 2.40389775,11.9099115 C2.40389775,8.89592338 4.01168989,5.93654801 6.5994595,4.18728025 C6.80317909,4.05104692 7.04605,3.89397713 7.30451507,3.76179165 C7.54977488,3.62595648 7.80485569,3.55090538 8.02310771,3.55090538 Z M15.8094362,3.55090538 C16.0221805,3.55090538 16.2785885,3.62615555 16.531944,3.76252159 C16.7741513,3.88760675 17.0103864,4.04042961 17.2294347,4.18681574 C19.8163417,5.93296466 21.4232048,8.89214096 21.4232048,11.9099115 C21.4232048,11.9512527 21.3999794,11.997438 21.3668667,11.997438 C21.3229376,11.997438 21.2881659,11.959282 21.2818619,11.9172773 L21.2337522,11.7484621 C21.1434387,11.4311373 21.0500728,11.1029962 20.9350077,10.7718025 C20.3594169,9.21046111 19.5093024,7.95708797 18.3368862,6.9398172 C17.623934,6.30510129 16.7543102,5.76049978 15.5990144,5.22591835 C15.2250198,5.05902755 14.9835424,4.7151595 14.9835424,4.34972505 C14.9835424,3.87951105 15.3229644,3.55090538 15.8094362,3.55090538 Z M8.87093953,0.00717331833 C9.15136916,0.00717331833 9.380703,0.0909836889 9.53405673,0.248916137 C9.6718163,0.3939751 9.74461121,0.581901441 9.74461121,0.792455919 C9.74461121,1.04455061 9.64115882,1.27839681 9.46152725,1.43314406 C9.25070734,1.6112494 8.84240551,1.78470966 8.51472886,1.92419453 L8.50192173,1.9296359 C7.75061452,2.23395448 7.19805002,2.48419114 6.42929061,2.93343596 C3.23076039,4.87082914 1.32110493,8.24069616 1.32110493,11.9479281 C1.32110493,17.8041031 6.07361081,22.5684207 11.9155851,22.5684207 C17.7534453,22.5684207 22.5028323,17.8041031 22.5028323,11.9479281 C22.5028323,8.23611744 20.5941059,4.86611771 17.3963056,2.93330325 C16.6236311,2.47848434 16.0721946,2.22977391 15.3259307,1.93003405 L15.2838596,1.91205099 C14.965274,1.77581766 14.5681867,1.60613982 14.3686477,1.43380765 C14.1935948,1.27972397 14.0933276,1.04581142 14.0933276,0.792455919 C14.0933276,0.56995697 14.1630037,0.387007492 14.3016923,0.248186197 C14.4451586,0.0929080758 14.6778768,0.00717331833 14.9570456,0.00717331833 C15.3254661,0.00717331833 15.7871199,0.130533159 16.3684175,0.384419523 C20.9668397,2.30283426 23.823559,6.55081896 23.823559,11.4701493 C23.823559,18.0344323 18.4815271,23.3747389 11.9155851,23.3747389 C5.34851507,23.3747389 0.00575325346,18.0344323 0.00575325346,11.4701493 C0.00575325346,6.55254427 2.86160988,2.304825 7.4601648,0.384087732 C8.03476021,0.134050142 8.50961928,0.00717331833 8.87093953,0.00717331833 Z" id="Combined-Shape"></path>
                </g>
            </g>
        </g>
    </g>
</svg>