<?xml version="1.0" encoding="UTF-8"?>
<svg width="43px" height="54px" viewBox="0 0 43 54" version="1.1" xmlns="http://www.w3.org/2000/svg" xmlns:xlink="http://www.w3.org/1999/xlink">
    <!-- Generator: Sketch 57 (83077) - https://sketch.com -->
    <title>icons/checkout/beacon/secondary@1x</title>
    <desc>Created with Sketch.</desc>
    <g id="icons/checkout/beacon/secondary" stroke="none" stroke-width="1" fill="none" fill-rule="evenodd">
        <path d="M21.5,31.3809524 C26.4135234,31.3809524 30.4142857,27.4681813 30.4142857,22.6190476 C30.4142857,17.7699139 26.4135234,13.8571429 21.5,13.8571429 C16.5864766,13.8571429 12.5857143,17.7699139 12.5857143,22.6190476 C12.5857143,27.4681813 16.5864766,31.3809524 21.5,31.3809524 Z M21.5,28.0952381 C18.4136475,28.0952381 15.9285714,25.6336495 15.9285714,22.6190476 C15.9285714,19.6044457 18.4136475,17.1428571 21.5,17.1428571 C24.5863525,17.1428571 27.0714286,19.6044457 27.0714286,22.6190476 C27.0714286,25.6336495 24.5863525,28.0952381 21.5,28.0952381 Z M22.1185942,49.6682409 C22.2783956,49.5821124 22.5628516,49.420472 22.9542756,49.1849529 C23.5979209,48.7976728 24.3128396,48.3399111 25.0813636,47.8132162 C27.2733667,46.3109639 29.4644936,44.5527554 31.5131786,42.5490278 C37.4261931,36.7657717 41,30.1319904 41,22.7451462 C41,12.3843329 32.2615429,4 21.5,4 C10.7384571,4 2,12.3843329 2,22.7451462 C2,30.1741509 5.57420422,36.8181681 11.4880692,42.5865401 C13.5373696,44.5854236 15.7291625,46.3360119 17.9218563,47.8290258 C18.6906512,48.3525013 19.4058401,48.8070733 20.0497551,49.1913378 C20.4414096,49.4250626 20.7260933,49.5853698 20.8861205,49.6707694 L21.5030535,50 L22.1185942,49.6682409 Z" id="Combined-Shape" fill="#004236"></path>
    </g>
</svg>