<?xml version="1.0" encoding="UTF-8"?>
<svg width="43px" height="54px" viewBox="0 0 43 54" version="1.1" xmlns="http://www.w3.org/2000/svg" xmlns:xlink="http://www.w3.org/1999/xlink">
    <!-- Generator: Sketch 57 (83077) - https://sketch.com -->
    <title>icons/checkout/beacon/secondary_inactive@1x</title>
    <desc>Created with Sketch.</desc>
    <g id="icons/checkout/beacon/secondary_inactive" stroke="none" stroke-width="1" fill="none" fill-rule="evenodd">
        <path d="M21.9999996,30.6190476 C26.0316084,30.6190476 29.3142851,27.3867585 29.3142851,23.3809524 C29.3142851,19.3751463 26.0316084,16.1428571 21.9999996,16.1428571 C17.9683908,16.1428571 14.6857141,19.3751463 14.6857141,23.3809524 C14.6857141,27.3867585 17.9683908,30.6190476 21.9999996,30.6190476 Z M21.9999996,27.9047619 C19.4676079,27.9047619 17.4285711,25.8712757 17.4285711,23.3809524 C17.4285711,20.8906291 19.4676079,18.8571429 21.9999996,18.8571429 C24.5323913,18.8571429 26.571428,20.8906291 26.571428,23.3809524 C26.571428,25.8712757 24.5323913,27.9047619 21.9999996,27.9047619 Z M22.507564,45.7259381 C22.6386831,45.6547885 22.8720829,45.5212594 23.1932513,45.3267002 C23.7213705,45.0067731 24.3079704,44.6286222 24.9385542,44.1935264 C26.7371209,42.9525354 28.5349685,41.5001023 30.2159408,39.8448491 C35.0676449,35.0673766 38,29.5872964 38,23.4851208 C38,14.926188 30.8299833,8 22,8 C13.1700159,8 6,14.926188 6,23.4851208 C6,29.6221247 8.9326803,35.1106606 13.7850822,39.8758375 C15.4665594,41.527089 17.2649535,42.9732272 19.0640868,44.2065865 C19.6948929,44.6390228 20.2817146,45.0145388 20.8100551,45.3319747 C21.1314126,45.5250517 21.3649992,45.6574794 21.4963036,45.7280269 L22.002505,46 L22.507564,45.7259381 Z" id="Combined-Shape" fill="#3A857E"></path>
    </g>
</svg>